<?xml version="1.0" encoding="UTF-8"?> <svg xmlns="http://www.w3.org/2000/svg" viewBox="0 0 1000 1000"><defs><style>.cls-1{fill:#f2f2f2;}.cls-2{fill:#5fbb46;}.cls-3{fill:#dea73a;}.cls-4{fill:#c5202e;}.cls-5{fill:#4ca046;}.cls-6{fill:#417f45;}.cls-7{fill:#fac315;}.cls-8{fill:#ef412c;}.cls-9{fill:#f99e28;}.cls-10{fill:#1c97d4;}.cls-11{fill:#a21c44;}.cls-12{fill:#29bee2;}.cls-13{fill:#f26a2c;}.cls-14{fill:#e8233c;}.cls-15{fill:#dd1768;}.cls-16{fill:#18496b;}.cls-17{fill:#be8b2c;}.cls-18{fill:#07699e;}</style></defs><title>Asset 1hedeffull</title><g id="Layer_2" data-name="Layer 2"><g id="Layer_18" data-name="Layer 18"><rect class="cls-1" width="1000" height="1000"></rect><path class="cls-2" d="M388.28,310.75a130.66,130.66,0,0,1,20.59-26.49L341.34,210.2A231.3,231.3,0,0,0,298.46,266Z"></path><path class="cls-3" d="M553.84,258.43a129.35,129.35,0,0,1,28.32,17.75l67.72-73.94a230.53,230.53,0,0,0-60-37.45Z"></path><path class="cls-4" d="M708.93,280.7l-89.76,44.75a128.35,128.35,0,0,1,9,31.72L728,347.74a227.3,227.3,0,0,0-19.08-67"></path><path class="cls-5" d="M612.73,312.48l89.76-44.74a230.7,230.7,0,0,0-42-55.69L592.82,286a129.84,129.84,0,0,1,19.91,26.5"></path><path class="cls-6" d="M370.44,376.26c0-2,.06-4,.15-6l-99.87-8.94c-.31,5-.51,10-.51,15a230.61,230.61,0,0,0,6.8,55.56l96.47-27.67a129.47,129.47,0,0,1-3-27.89"></path><path class="cls-7" d="M600.17,458.36a131.61,131.61,0,0,1-24.36,22.91l52.73,85.38a231.47,231.47,0,0,0,51.64-48Z"></path><path class="cls-8" d="M629.56,376.26a128.37,128.37,0,0,1-3,27.56L723,431.53a228.9,228.9,0,0,0,6.76-55.27q0-7.08-.46-14.1l-99.86,9.44c0,1.56.09,3.1.09,4.66"></path><path class="cls-9" d="M401.45,460.27l-79.82,60.67a231.55,231.55,0,0,0,52.12,47.22l52.73-85.29a130.55,130.55,0,0,1-25-22.6"></path><path class="cls-10" d="M372.06,355.81a127.29,127.29,0,0,1,9.57-32.17L291.9,278.93a227.66,227.66,0,0,0-19.8,67.92Z"></path><path class="cls-11" d="M616.27,574.37,563.62,489.1a128.72,128.72,0,0,1-30.74,12.49l18.58,98.64a228.07,228.07,0,0,0,64.81-25.86"></path><path class="cls-12" d="M622.75,417.79a129.84,129.84,0,0,1-14,28.87l80.07,60.4a228.67,228.67,0,0,0,30.32-61.58Z"></path><path class="cls-13" d="M518.68,504.47a127.48,127.48,0,0,1-33.76.47l-18.57,98.64a231.3,231.3,0,0,0,70.9-.56Z"></path><path class="cls-14" d="M508.28,247a128.7,128.7,0,0,1,32.06,6.19l36-93.62a227.86,227.86,0,0,0-68.08-12.88Z"></path><path class="cls-15" d="M470.64,502.47a129.15,129.15,0,0,1-31.8-12l-52.76,85.32a228.14,228.14,0,0,0,66,25.23Z"></path><path class="cls-16" d="M461.06,252.69a128.35,128.35,0,0,1,32.73-5.82V146.56a228.84,228.84,0,0,0-69,12.58Z"></path><path class="cls-17" d="M392.66,448.74a128.88,128.88,0,0,1-15.28-30.64L281,445.77a228.89,228.89,0,0,0,31.84,63.64Z"></path><path class="cls-18" d="M419.72,274.64a129.76,129.76,0,0,1,27.79-16.81l-36.25-93.51a229.89,229.89,0,0,0-59.12,36.21Z"></path><path d="M159.51,807.39v45.28H143.87v-93h15.64v40.89l17-40.89H191.9l-18.12,41.86,18.53,51.18H175.84Z"></path><path d="M241.57,759.63V830c0,14.41-6.18,23.74-22.09,23.74-16.47,0-23.33-9.33-23.33-23.74v-70.4h15.64v71.91c0,5.49,2.2,9.19,7.69,9.19s7.68-3.7,7.68-9.19V759.63Zm-37.32-15.09h13.31v11.8H204.25Zm16.6,0h13.31v11.8H220.85Z"></path><path d="M264.07,810v42.68H248.43v-93h22.78c15.78,0,21.54,7.82,21.54,20.86v11.94c0,10-3.56,15.92-12.48,18l15,42.27H278.76Zm0-37.6v29h5.22c5.35,0,7.68-2.75,7.68-7.69V779.94c0-5.08-2.33-7.55-7.68-7.55Z"></path><path d="M299.2,759.63h37.33v12.76H314.84V799h15.51v12.63H314.84v28.27h21.69v12.76H299.2Z"></path><path d="M341.33,832.63V820.15h14.55v12.76c0,5.21,2.33,8.23,7.68,8.23,4.94,0,7.13-3.29,7.13-8.23v-3.57c0-5.35-2.19-8.64-7-13.17l-9.2-9.2c-8.92-8.78-13-14.13-13-24.83V779c0-11.53,6.72-20.45,21.95-20.45,15.65,0,21.82,7.69,21.82,21.14v7.54H371v-8.09c0-5.35-2.47-8-7.41-8-4.39,0-7.41,2.47-7.41,7.68v1.92c0,5.22,2.88,8.24,7.41,12.63l10,9.88c8.5,8.64,12.62,13.86,12.62,24.15V832c0,12.76-6.86,21.82-22.78,21.82S341.33,844.85,341.33,832.63Z"></path><path d="M392.38,759.63H429.7v12.76H408V799h15.51v12.63H408v28.27H429.7v12.76H392.38Z"></path><path d="M436,759.63h15.64v80.28h18.67v12.76H436Z"></path><path d="M485.27,852.67l17.57-93h17.84l17.7,93H522.32l-2.88-17h-16.6l-2.75,17Zm19.63-29.5h12.48l-6.17-37.33h-.14Z"></path><path d="M585.85,792.29h-.41l-10.56,60.38H567.6l-11.66-60.38h-.27v60.38h-12.9v-93H561l10.15,52.42h.14l9.06-52.42h19.75v93H585.85Z"></path><path d="M604.52,852.67l17.56-93h17.84l17.7,93h-16l-2.89-17h-16.6l-2.75,17Zm19.62-29.5h12.48l-6.17-37.33h-.14Z"></path><path d="M676.55,862.14c4.4-.14,5.08-1.1,5.08-2.2s-.82-1.51-2.19-1.51h-.69v-5.07c-13.31-1.65-18.8-11.67-18.8-24.7v-45c0-14.55,6.86-25.12,23.33-25.12,17.29,0,22.09,9.61,22.09,23.33v11H691.1V780.63c0-5.77-1.92-9.06-7.55-9.06s-8,4-8,9.61v49.94c0,5.63,2.34,9.61,8,9.61s7.55-3.57,7.55-9.06V814.52h14.27v16.06c0,13-5.21,22.64-20.72,23.19V855c3.71.55,5.76,1.92,5.76,4.94,0,4.26-4,6.59-13.86,6.59Z"></path><path d="M711.82,759.63h15.64v80.28h18.67v12.76H711.82Z"></path><path d="M748.73,852.67l17.57-93h17.83l17.71,93H785.78l-2.88-17H766.3l-2.75,17Zm19.62-29.5h12.49l-6.17-37.33h-.14Z"></path><path d="M821.87,810v42.68H806.23v-93H829c15.79,0,21.55,7.82,21.55,20.86v11.94c0,10-3.57,15.92-12.49,18l15,42.27H836.55Zm0-37.6v29h5.21c5.35,0,7.69-2.75,7.69-7.69V779.94c0-5.08-2.34-7.55-7.69-7.55Z"></path><path d="M251.6,721.59v-5.75h6.69v5.88c0,2.39,1.07,3.78,3.53,3.78,2.27,0,3.28-1.51,3.28-3.78v-1.65c0-2.46-1-4-3.21-6.06l-4.23-4.22c-4.11-4-6-6.51-6-11.43v-1.45c0-5.31,3.09-9.41,10.1-9.41,7.2,0,10,3.54,10,9.72v3.47h-6.57V697c0-2.46-1.14-3.66-3.41-3.66-2,0-3.41,1.14-3.41,3.53v.89c0,2.4,1.33,3.79,3.41,5.81l4.61,4.54c3.91,4,5.81,6.38,5.81,11.11v2.08c0,5.87-3.16,10-10.48,10S251.6,727.21,251.6,721.59Z"></path><path d="M281.89,722c0,2.21.64,3.66,3,3.66,2.21,0,3-1.26,3.16-3.16V695H295v35.8h-6.94v-3.67H288a6.33,6.33,0,0,1-6.31,4.17c-4.35,0-6.69-2.78-6.69-9V695h6.94Zm-3.78-34h6.12v5.43h-6.12Zm7.64,0h6.12v5.43h-6.12Z"></path><path d="M310.68,702.9h-2c-2.52,0-3.6,1.2-3.6,3.6v24.31h-6.94V695h6.94v3.66h.13a5.61,5.61,0,0,1,5.43-3.91Z"></path><path d="M333.09,730.81h-6.95v-3.67H326c-.89,2-2.28,4.17-6,4.17-4.42,0-7.07-2.78-7.07-9V703.54c0-6.25,2.4-9,6.82-9a6.25,6.25,0,0,1,6.25,4.16h.12V688h6.95ZM319.89,722c0,2.21.63,3.66,3.1,3.66s3.15-1.45,3.15-3.66V703.41c-.12-2-.95-3.22-3.15-3.22-2.47,0-3.1,1.45-3.1,3.66Z"></path><path d="M343,722c0,2.21.64,3.66,3,3.66,2.21,0,3-1.26,3.16-3.16V695h6.94v35.8h-6.94v-3.67h-.13a6.33,6.33,0,0,1-6.31,4.17c-4.35,0-6.69-2.78-6.69-9V695H343Zm-3.78-34h6.12v5.43h-6.12Zm7.64,0H353v5.43h-6.12Z"></path><path d="M371.78,702.9h-2c-2.52,0-3.6,1.2-3.6,3.6v24.31h-6.94V695h6.94v3.66h.13a5.61,5.61,0,0,1,5.43-3.91Z"></path><path d="M381,722c0,2.21.63,3.66,3,3.66,2.21,0,3-1.26,3.16-3.16V695h6.94v35.8h-6.94v-3.67h-.13a6.33,6.33,0,0,1-6.31,4.17c-4.36,0-6.69-2.78-6.69-9V695H381Zm-3.78-34h6.12v5.43h-6.12Zm7.63,0H391v5.43h-6.13Z"></path><path d="M397.28,688h6.94v42.8h-6.94Z"></path><path d="M427.45,716.67v4.22c0,6.44-3,10.42-9.91,10.42s-10.29-4.48-10.29-10.86V705.37c0-6.44,3.34-10.86,10.29-10.86s9.91,4,9.91,10.41v8.65H414.19v8c0,2.46,1.14,4,3.48,4s3.21-1.52,3.21-4v-4.86Zm-13.26-8.15h6.57v-4.23c0-2.46-.95-4-3.22-4s-3.35,1.58-3.35,4Z"></path><path d="M430.48,688h6.94v10.66h.13a6.33,6.33,0,0,1,6.31-4.16c4.36,0,6.75,2.78,6.75,9v18.74c0,6.25-2.71,9-7.07,9-3.78,0-5.11-2.08-6-4.1h-.13v3.6h-6.94Zm13.19,15.84c0-2.21-.63-3.66-3.09-3.66-2.21,0-3.1,1.26-3.16,3.22v19.13c.06,1.89.95,3.15,3.16,3.15,2.4,0,3.09-1.45,3.09-3.66Z"></path><path d="M453.58,688h6.94v5.43h-6.94Zm0,7h6.94v35.8h-6.94Z"></path><path d="M463.68,688h6.94v42.8h-6.94Z"></path><path d="M473.78,688h6.94v5.43h-6.94Zm0,7h6.94v35.8h-6.94Z"></path><path d="M496.37,702.9h-1.95c-2.53,0-3.6,1.2-3.6,3.6v24.31h-6.94V695h6.94v3.66H491a5.59,5.59,0,0,1,5.42-3.91Z"></path><path d="M511.65,710v20.84h-7.2V688h7.2v18.81L519.48,688h7.07l-8.34,19.25,8.53,23.55h-7.58Z"></path><path d="M540,730.81v-3h-.19a6.37,6.37,0,0,1-5.68,3.47c-4.86,0-7.32-2.78-7.32-9v-2.71c0-5.93,3.47-7.64,8.2-9.72,4.23-1.83,5-2.65,5-4.36v-1.64c0-2.52-.69-3.6-2.78-3.6s-3.09,1.2-3.09,3.66v3.54h-6.31v-3c0-6,2.59-9.91,9.66-9.91,6.81,0,9.46,3.53,9.46,10v26.27Zm0-8.84v-9.16c-.57.64-1.14,1-3.47,2.21-2.15,1.27-2.78,2.15-2.78,4.74V722c0,2.21.63,3.79,3,3.79S540,724.18,540,722Z"></path><path d="M549.9,688h6.94v42.8H549.9Z"></path><path d="M573.13,730.81l-6.19-17.24v17.24H560V688h6.94v22.41L573.32,695h6.81l-6.94,15.91,7.26,19.89Z"></path><path d="M581.78,695h6.94v35.8h-6.94Z"></path><path d="M605,703.85c0-2.21-.63-3.66-3-3.66s-3.15,1.45-3.15,3.66v27h-7V695h7v3.66h.12a6.25,6.25,0,0,1,6.25-4.16c4.36,0,6.76,2.78,6.76,9v27.27h-7Z"></path><path d="M627.67,703.79c0-2.15-.51-3.6-2.85-3.6s-2.9,1.45-2.9,3.6v27H615V695h6.94v3.6h.13a6.09,6.09,0,0,1,6-4.1,5.63,5.63,0,0,1,5.81,4.16H634a6.7,6.7,0,0,1,6.44-4.16c4.61,0,6.75,2.78,6.75,9v27.34h-6.94v-27c0-2.15-.5-3.6-2.78-3.6s-2.9,1.33-3,3.28v27.34h-6.88Z"></path><path d="M662.7,730.81v-3h-.19a6.38,6.38,0,0,1-5.68,3.47c-4.86,0-7.33-2.78-7.33-9v-2.71c0-5.93,3.48-7.64,8.21-9.72,4.23-1.83,5-2.65,5-4.36v-1.64c0-2.52-.7-3.6-2.78-3.6s-3.09,1.2-3.09,3.66v3.54h-6.32v-3c0-6,2.59-9.91,9.66-9.91,6.82,0,9.47,3.53,9.47,10v26.27Zm0-8.84v-9.16c-.57.64-1.14,1-3.48,2.21-2.14,1.27-2.77,2.15-2.77,4.74V722c0,2.21.63,3.79,3,3.79S662.7,724.18,662.7,722Z"></path><path d="M678.29,688h7.19v42.8h-7.19Zm.19-7h6.94v5.43h-6.94Z"></path><path d="M696,735.16c2-.06,2.33-.5,2.33-1s-.37-.69-1-.69H697v-2.28c-5.68-.75-8.4-4.92-8.4-10.73V705.37c0-6.44,3.35-10.86,10.29-10.86s9.85,3.91,9.85,10.35v2.59H702v-3.22c0-2.46-.88-4-3.16-4s-3.34,1.58-3.34,4v17.24c0,2.46,1.13,4,3.41,4s3.28-1.52,3.28-4v-4.86h6.5v4.22c0,6.19-2.71,10-9,10.36v.63c1.71.25,2.65.88,2.65,2.27,0,2-1.83,3-6.37,3Z"></path><path d="M711.36,688h6.94v5.43h-6.94Zm0,7h6.94v35.8h-6.94Z"></path><path d="M734.59,703.85c0-2.21-.63-3.66-3-3.66s-3.16,1.45-3.16,3.66v27h-6.94V695h6.94v3.66h.13a6.23,6.23,0,0,1,6.25-4.16c4.35,0,6.75,2.78,6.75,9v27.27h-6.94Z"></path></g></g></svg> 