<?xml version="1.0" encoding="UTF-8"?> <svg xmlns="http://www.w3.org/2000/svg" viewBox="0 0 164.33 164.33"><defs><style>.cls-1{fill:#fdb714;}.cls-2{fill:#fff;}</style></defs><g id="Layer_2" data-name="Layer 2"><g id="UN_LOGOSUZ" data-name="UN LOGOSUZ"><g id="AMAC_07" data-name="AMAC 07"><rect id="arkaplan" class="cls-1" width="164.33" height="164.33"></rect><g id="simge"><path class="cls-2" d="M81.56,79.5a24.2,24.2,0,1,0,24.19,24.2A24.19,24.19,0,0,0,81.56,79.5m-1.79,9.56a1.8,1.8,0,0,1,3.59,0v8.31a1.8,1.8,0,0,1-3.59,0Zm1.79,27a12.59,12.59,0,0,1-3.74-24.6v4.69a8.24,8.24,0,1,0,7.46,0V91.48a12.59,12.59,0,0,1-3.72,24.61"></path><path class="cls-2" d="M53.79,103.48a2,2,0,0,0-1.86-2H41.33a2,2,0,0,0,0,4h10.6a2,2,0,0,0,1.86-2"></path><path class="cls-2" d="M123.67,103.48a2,2,0,0,0-1.85-2h-10.6a2,2,0,0,0,0,4h10.6a2,2,0,0,0,1.85-2"></path><path class="cls-2" d="M81.57,145.6a2,2,0,0,0,2-1.86v-10.6a2,2,0,0,0-4,0v10.6a2,2,0,0,0,2,1.86"></path><path class="cls-2" d="M118.11,124.4a2,2,0,0,0-.62-2.65l-9.2-5.26a2,2,0,0,0-2,3.45l9.19,5.27a2,2,0,0,0,2.6-.81"></path><path class="cls-2" d="M60.65,140a2,2,0,0,0,2.65-.63l5.26-9.2a2,2,0,0,0-3.45-2l-5.26,9.19a2,2,0,0,0,.8,2.61"></path><path class="cls-2" d="M102.56,140a2,2,0,0,0,.8-2.6l-5.29-9.19a2,2,0,0,0-3.44,2l5.28,9.18a2,2,0,0,0,2.65.62"></path><path class="cls-2" d="M45.07,124.48a2,2,0,0,0,2.6.8L56.85,120a2,2,0,0,0-2-3.44l-9.19,5.28a2,2,0,0,0-.61,2.65"></path><path class="cls-2" d="M81.57,75.71a2,2,0,0,0,2-1.86V63.25a2,2,0,0,0-4,0v10.6a2,2,0,0,0,2,1.86"></path><path class="cls-2" d="M57.46,89.69A2,2,0,0,0,56.83,87l-9.2-5.26a2,2,0,0,0-2,3.45l9.2,5.26a2,2,0,0,0,2.6-.8"></path><path class="cls-2" d="M95.37,79.38A2,2,0,0,0,98,78.75l5.27-9.19a2,2,0,0,0-3.46-2l-5.26,9.2a2,2,0,0,0,.81,2.6"></path><path class="cls-2" d="M67.72,79.4a2,2,0,0,0,.8-2.6l-5.29-9.18a2,2,0,0,0-3.44,2l5.28,9.19a2,2,0,0,0,2.65.61"></path><path class="cls-2" d="M105.65,89.64a2,2,0,0,0,2.6.8l9.19-5.28a2,2,0,0,0-2-3.45L106.27,87a2,2,0,0,0-.62,2.65"></path></g><path class="cls-2" d="M34.24,14.05h4.93v1.51h-2.8v3.37h2.21v1.5H36.37v3.9H39.2v1.46h-5Z"></path><path class="cls-2" d="M40.45,14.05h2.83c2.34,0,3.68.75,3.68,3.11,0,1.41-.35,2.4-1.45,2.85l1.64,5.78H45l-1.41-5.38h-1v5.38H40.45Zm2.81,5c1.23,0,1.68-.54,1.68-1.8s-.33-1.77-1.56-1.77h-.8v3.57Z"></path><path class="cls-2" d="M48.64,14.05h2.12V25.79H48.64Zm.1-3.19h1.92v2H48.74Z"></path><path class="cls-2" d="M55.69,26v.72c1.07,0,1.8.48,1.8,1.38s-.92,1.46-2,1.46a3.79,3.79,0,0,1-1-.15v-.92a2.71,2.71,0,0,0,.78.12c.51,0,.89-.15.89-.54s-.6-.71-1.28-.78V25.91c-1.7-.25-2.51-1.47-2.58-3.54L54.12,22c.06,1.39.39,2.29,1.34,2.29.68,0,1-.47,1-1.11A2.8,2.8,0,0,0,55.14,21l-1.48-1.29a3.48,3.48,0,0,1-1.36-2.84,2.71,2.71,0,0,1,3-2.9c2.21,0,2.83,1.48,3,3.19l-1.84.31c0-1.1-.21-1.92-1.15-1.92a1,1,0,0,0-1,1.1,2.13,2.13,0,0,0,1,1.77l1.47,1.29a4.35,4.35,0,0,1,1.75,3.4A2.77,2.77,0,0,1,55.69,26Z"></path><path class="cls-2" d="M59.79,14.05h2.12V25.79H59.79Zm.1-3.19h1.92v2H59.89Z"></path><path class="cls-2" d="M63.72,14.05h2.13V24.33h2.86v1.46h-5Z"></path><path class="cls-2" d="M69.82,14.05h4.93v1.51H72v3.37h2.2v1.5H72v3.9h2.82v1.46h-5Z"></path><path class="cls-2" d="M76,14.05h2.9c2.06,0,3.44.69,3.44,3,0,1.44-.6,2.24-1.7,2.41,1.38.26,2,1.25,2,2.9,0,2.24-1.1,3.42-3.28,3.42H76Zm2.87,4.8c1.28,0,1.61-.57,1.61-1.76s-.61-1.55-1.91-1.55h-.44v3.31ZM79,24.28c1.3,0,1.67-.61,1.67-1.93s-.47-2-1.74-2h-.76v4Z"></path><path class="cls-2" d="M84.17,14.05h2.11V25.79H84.17Zm.1-3.19h1.91v2H84.27Z"></path><path class="cls-2" d="M88.09,14.05h2.14V24.33h2.85v1.46h-5Z"></path><path class="cls-2" d="M94.26,14.05h2.11V25.79H94.26Zm.1-3.19h1.91v2H94.36Z"></path><path class="cls-2" d="M98.19,14.05H101c2.35,0,3.69.75,3.69,3.11,0,1.41-.35,2.4-1.45,2.85l1.63,5.78h-2.14l-1.41-5.38h-1v5.38H98.19Zm2.81,5c1.23,0,1.68-.54,1.68-1.8s-.33-1.77-1.56-1.77h-.8v3.57Z"></path><path class="cls-2" d="M109.29,14.05h1.89l1.55,8.3,1.46-8.3h1.93l-2.36,11.74h-2.1Z"></path><path class="cls-2" d="M117.33,14.05h4.92v1.51h-2.79v3.37h2.2v1.5h-2.2v3.9h2.82v1.46h-5Z"></path><path class="cls-2" d="M35.42,35.13H33.55V33.55h5.84v1.58H37.56V45.29H35.42Z"></path><path class="cls-2" d="M40.46,33.55h4.93v1.51h-2.8v3.37H44.8v1.5H42.59v3.9h2.83v1.46h-5Z"></path><path class="cls-2" d="M46.84,33.55h2.22l1.67,8.13,1.72-8.13h2.16l.22,11.74H53.24l-.18-8.16L51.4,45.29H50.11l-1.7-8.19-.16,8.19H46.64Z"></path><path class="cls-2" d="M56.63,33.55h2.12V45.29H56.63Zm.1-3.19h1.92v2H56.73Z"></path><path class="cls-2" d="M60.17,43.91,63.31,35h-3V33.55h5.14v1.1L62.2,43.83h3.29v1.46H60.17Z"></path><path class="cls-2" d="M70.25,33.55h4.92v1.51H72.38v3.37h2.2v1.5h-2.2v3.9H75.2v1.46h-5Z"></path><path class="cls-2" d="M76.45,33.55H78l2.85,6.69V33.55h1.77V45.29H81.15l-2.87-7v7H76.45Z"></path><path class="cls-2" d="M84.35,33.55h4.93v1.51H86.49v3.37h2.2v1.5h-2.2v3.9h2.82v1.46h-5Z"></path><path class="cls-2" d="M90.56,33.55h2.83c2.35,0,3.68.75,3.68,3.11,0,1.41-.35,2.4-1.45,2.85l1.64,5.78H95.11l-1.4-5.38h-1v5.38H90.56Zm2.81,5c1.23,0,1.68-.54,1.68-1.8S94.72,35,93.49,35h-.8v3.57Z"></path><path class="cls-2" d="M98,44.07c1.24,0,1.56-.23,1.56-1.46V33.55h2.13v9.12c0,2-.57,2.91-2.66,2.91H98Z"></path><path class="cls-2" d="M103.48,33.55h2.12V45.29h-2.12Zm.1-3.19h1.91v2h-1.91Z"></path><path class="cls-2" d="M20.84,18.8H12.22v-5h15v4.48L20.33,45.44H14Z"></path></g></g></g></svg> 