<?xml version="1.0" encoding="UTF-8"?> <svg xmlns="http://www.w3.org/2000/svg" viewBox="0 0 164.33 164.33"><defs><style>.cls-1{fill:#8f1838;}.cls-2{fill:#fff;}</style></defs><g id="Layer_2" data-name="Layer 2"><g id="UN_LOGOSUZ" data-name="UN LOGOSUZ"><g id="AMAC_08" data-name="AMAC 08"><rect id="arkaplan" class="cls-1" width="164.33" height="164.33"></rect><g id="simge"><path class="cls-2" d="M111.61,80.45l-16.78,16a2.76,2.76,0,0,0-1,2.4v44.73a1,1,0,0,0,1,1h17.33a1,1,0,0,0,1-1V80.85c0-.53-.41-1.49-1.5-.4"></path><path class="cls-2" d="M63.27,101.24l-16.79,16a2.79,2.79,0,0,0-.95,2.4v23.94a1,1,0,0,0,.95,1H63.82a1,1,0,0,0,.95-1v-41.9c0-.52-.41-1.49-1.5-.4"></path><path class="cls-2" d="M119.23,61.09a.46.46,0,0,0-.14-.36.49.49,0,0,0-.31-.14h-.23L105.7,63.5l-.23,0a.44.44,0,0,0-.25.13.49.49,0,0,0,0,.69l.14.14,2.94,2.94L79.18,96.54,65.74,83.09a.39.39,0,0,0-.55,0l-3.65,3.65h0L40,108.3a.39.39,0,0,0,0,.55l3.66,3.65a.38.38,0,0,0,.54,0L65.47,91.22,75.22,101s0,0,0,0l3.65,3.65a.38.38,0,0,0,.54,0l33-33,3.09,3.07a.46.46,0,0,0,.68,0,.44.44,0,0,0,.14-.31v0l2.83-13.12Z"></path><path class="cls-2" d="M87.53,104l-8.12,8.19a.38.38,0,0,1-.52,0l-7.36-7.5c-1.34-1.34-1.63-.25-1.63.28v38.55a1,1,0,0,0,.95,1H88.18a1,1,0,0,0,1-1V104.35c0-.53-.42-1.5-1.61-.31"></path></g><path class="cls-2" d="M37,14.75h2.12V26.49H37Zm.11-3.19H39v2H37.06Z"></path><path class="cls-2" d="M40.88,14.75h1.5l2.85,6.7v-6.7H47V26.49H45.58l-2.87-7v7H40.88Z"></path><path class="cls-2" d="M48.49,23.07l1.85-.36c0,1.39.39,2.29,1.33,2.29.68,0,1-.46,1-1.1a2.82,2.82,0,0,0-1.29-2.25l-1.48-1.29a3.45,3.45,0,0,1-1.36-2.84,2.72,2.72,0,0,1,3-2.9c2.2,0,2.83,1.48,2.94,3.19l-1.84.32c0-1.1-.2-1.93-1.14-1.93a1,1,0,0,0-1,1.1,2.11,2.11,0,0,0,1,1.77l1.46,1.29a4.36,4.36,0,0,1,1.76,3.41,2.78,2.78,0,0,1-2.95,2.88C49.6,26.65,48.58,25.41,48.49,23.07Z"></path><path class="cls-2" d="M57.64,14.75h2.29l2.35,11.74h-2l-.47-2.71h-2l-.48,2.71h-2Zm2,7.67-.8-4.93L58,22.42Z"></path><path class="cls-2" d="M63.46,14.75H65l2.86,6.7v-6.7h1.77V26.49H68.15l-2.87-7v7H63.46Z"></path><path class="cls-2" d="M73.11,14.75H75.4l2.35,11.74h-2l-.47-2.71h-2l-.48,2.71h-2Zm2,7.67-.8-4.93-.79,4.93Z"></path><path class="cls-2" d="M84.09,22l-2.38-7.27h2l1.45,4.66,1.37-4.66h2L86.14,22v4.47h-2Z"></path><path class="cls-2" d="M90.82,14.75h2.29l2.35,11.74h-2L93,23.78H91l-.47,2.71h-2Zm2,7.67L92,17.49l-.8,4.93Z"></path><path class="cls-2" d="M96.63,14.75h2.14v5.16l2.33-5.16h2L100.9,20l2.47,6.5h-2.13l-1.95-5.33-.52.88v4.45H96.63Z"></path><path class="cls-2" d="M104.41,14.75h2.11V26.49h-2.11Z"></path><path class="cls-2" d="M111.45,26.65v.73c1.08,0,1.8.48,1.8,1.38s-.91,1.46-2,1.46a3.82,3.82,0,0,1-1-.16v-.91a2.74,2.74,0,0,0,.79.11c.5,0,.88-.14.88-.53s-.59-.71-1.27-.79V26.61c-1.7-.25-2.51-1.46-2.58-3.54l1.84-.36c0,1.39.39,2.29,1.33,2.29.68,0,1-.46,1-1.1a2.82,2.82,0,0,0-1.29-2.25l-1.48-1.29a3.45,3.45,0,0,1-1.36-2.84,2.72,2.72,0,0,1,3-2.9c2.2,0,2.83,1.48,2.94,3.19l-1.84.32c0-1.1-.2-1.93-1.14-1.93a1,1,0,0,0-1,1.1,2.11,2.11,0,0,0,1,1.77l1.46,1.29a4.36,4.36,0,0,1,1.75,3.41A2.76,2.76,0,0,1,111.45,26.65Z"></path><path class="cls-2" d="M115.56,14.75h2.11V26.49h-2.11Z"></path><path class="cls-2" d="M119.48,14.75h2.83c2.35,0,3.68.76,3.68,3.12,0,1.41-.34,2.39-1.45,2.84l1.64,5.78H124l-1.41-5.37h-1v5.37h-2.14Zm2.82,5c1.23,0,1.68-.53,1.68-1.8s-.33-1.76-1.57-1.76h-.79v3.56Z"></path><path class="cls-2" d="M131.2,14.75h2.12V26.49H131.2Zm.1-3.19h1.92v2H131.3Z"></path><path class="cls-2" d="M138.25,26.65v.73c1.07,0,1.79.48,1.79,1.38s-.91,1.46-2,1.46a3.81,3.81,0,0,1-1-.16v-.91a2.72,2.72,0,0,0,.78.11c.51,0,.89-.14.89-.53s-.6-.71-1.28-.79V26.61c-1.7-.25-2.51-1.46-2.58-3.54l1.84-.36c.06,1.39.39,2.29,1.34,2.29.68,0,1-.46,1-1.1a2.85,2.85,0,0,0-1.29-2.25l-1.48-1.29a3.45,3.45,0,0,1-1.36-2.84,2.72,2.72,0,0,1,3-2.9c2.21,0,2.83,1.48,3,3.19l-1.84.32c-.05-1.1-.21-1.93-1.15-1.93a1,1,0,0,0-1,1.1,2.12,2.12,0,0,0,.95,1.77l1.47,1.29A4.39,4.39,0,0,1,141,23.77,2.77,2.77,0,0,1,138.25,26.65Z"></path><path class="cls-2" d="M145.27,14.75h1.88l1.55,8.31,1.46-8.31h1.93l-2.36,11.74h-2.1Z"></path><path class="cls-2" d="M153.3,14.75h4.93v1.51h-2.8v3.38h2.2v1.49h-2.2V25h2.83v1.46h-5Z"></path><path class="cls-2" d="M36.9,34.25h4.92v1.51H39v3.38h2.2v1.49H39v3.9h2.82V46h-5Z"></path><path class="cls-2" d="M43.1,34.25h2.13v5.16l2.34-5.16h2l-2.25,5.24L49.84,46H47.71l-2-5.33-.52.88V46H43.1Z"></path><path class="cls-2" d="M50.45,42.31v-4.4c0-2.38.87-3.79,3.4-3.79s3.37,1.41,3.37,3.79v4.4c0,2.36-.87,3.84-3.37,3.84S50.45,44.69,50.45,42.31Zm4.6.51V37.41c0-1-.16-1.72-1.2-1.72s-1.22.74-1.22,1.72v5.41c0,1,.16,1.75,1.22,1.75S55.05,43.79,55.05,42.82Z"></path><path class="cls-2" d="M58.8,34.25h1.5L63.15,41v-6.7h1.77V46H63.5l-2.87-7v7H58.8Z"></path><path class="cls-2" d="M66.52,42.31v-4.4c0-2.38.87-3.79,3.39-3.79s3.38,1.41,3.38,3.79v4.4c0,2.36-.87,3.84-3.38,3.84S66.52,44.69,66.52,42.31Zm4.59.51V37.41c0-1-.16-1.72-1.2-1.72s-1.22.74-1.22,1.72v5.41c0,1,.16,1.75,1.22,1.75S71.11,43.79,71.11,42.82Z"></path><path class="cls-2" d="M75,34.25h2.22l1.67,8.13,1.72-8.13h2.16L83,46H81.44l-.18-8.16L79.6,46H78.31l-1.7-8.19L76.45,46H74.84Z"></path><path class="cls-2" d="M84.83,34.25H87V46H84.83Zm.1-3.19h1.92v2H84.93Z"></path><path class="cls-2" d="M88.76,34.25h2.13v5.16l2.34-5.16h2L93,39.49,95.5,46H93.37l-2-5.33-.52.88V46H88.76Z"></path><path class="cls-2" d="M36.9,53.75h2.89c2.06,0,3.44.7,3.44,3,0,1.43-.59,2.23-1.7,2.4,1.38.27,2,1.25,2,2.9,0,2.25-1.1,3.42-3.27,3.42H36.9Zm2.87,4.8c1.27,0,1.6-.56,1.6-1.75s-.6-1.55-1.91-1.55H39v3.3ZM39.85,64c1.31,0,1.67-.61,1.67-1.93s-.46-2-1.74-2H39v4Z"></path><path class="cls-2" d="M44.88,61.7v-8H47v8.19c0,1.12.13,2.12,1.22,2.12s1.23-1,1.23-2.12V53.75h2.07v8c0,2.46-.68,4-3.3,4S44.88,64.16,44.88,61.7Zm1-11.31h1.74v1.88H45.91Zm2.84,0h1.74v1.88H48.75Z"></path><path class="cls-2" d="M54.82,61l-2.38-7.27h2l1.45,4.66,1.36-4.66h2L56.86,61v4.47h-2Z"></path><path class="cls-2" d="M60.15,61.7v-8h2.09v8.19c0,1.12.13,2.12,1.22,2.12s1.23-1,1.23-2.12V53.75h2.07v8c0,2.46-.68,4-3.3,4S60.15,64.16,60.15,61.7Zm1-11.31h1.74v1.88H61.18Zm2.84,0h1.74v1.88H64Z"></path><path class="cls-2" d="M68.62,53.75h2.22l1.67,8.13,1.72-8.13h2.16l.22,11.74H75l-.17-8.16-1.67,8.16H71.88L70.19,57.3,70,65.49H68.42Z"></path><path class="cls-2" d="M78.35,53.75h4.93v1.51h-2.8v3.38h2.21v1.49H80.48V64h2.83v1.46h-5Z"></path><path class="cls-2" d="M13.17,35.86c.08-3.16,1.17-6,3.67-7.21-1.6-1.17-3.05-3.4-3.16-6.91-.12-5.3,2.77-8.5,8.15-8.5s8.23,3.24,8.07,8.5c-.08,3.55-1.44,5.78-3.08,6.91,2.46,1.21,3.63,4.05,3.67,7.21.11,5.81-2.19,9.91-8.66,9.91S13.13,41.67,13.17,35.86Zm10.88.51c0-2.42-.12-4.92-2.22-4.92s-2.22,2.46-2.22,4.92c0,1.83.15,4.6,2.22,4.6S24.05,38.16,24.05,36.37Zm-.27-14.78c0-2.11-.67-3.47-2-3.47s-2,1.36-2,3.43c0,3.16.66,4.76,2,4.76S23.78,24.71,23.78,21.59Z"></path></g></g></g></svg> 