<?xml version="1.0" encoding="UTF-8"?> <svg xmlns="http://www.w3.org/2000/svg" viewBox="0 0 164.33 164.33"><defs><style>.cls-1{fill:#40ae49;}.cls-2{fill:#fff;}</style></defs><g id="Layer_2" data-name="Layer 2"><g id="UN_LOGOSUZ" data-name="UN LOGOSUZ"><g id="AMAC_15" data-name="AMAC 15"><rect id="arkaplan" class="cls-1" width="164.33" height="164.33"></rect><g id="simge"><path class="cls-2" d="M58.35,112.11h4.86a.37.37,0,0,1,.37.37v12a.37.37,0,0,1-.37.37H58.35a.37.37,0,0,1-.37-.37v-12A.36.36,0,0,1,58.35,112.11Z"></path><path class="cls-2" d="M116.64,130H36.48a.38.38,0,0,0-.37.38v4.9a.37.37,0,0,0,.37.36h80.16a.37.37,0,0,0,.37-.36v-4.9a.38.38,0,0,0-.37-.38"></path><path class="cls-2" d="M116.64,139.76H36.48a.37.37,0,0,0-.37.36V145a.37.37,0,0,0,.37.36h80.16A.37.37,0,0,0,117,145v-4.92a.37.37,0,0,0-.37-.36"></path><path class="cls-2" d="M101.39,98.8a11.9,11.9,0,0,0-6.94-2.61A9.3,9.3,0,0,0,88,98.92a.72.72,0,0,0-.21.51v.43a.68.68,0,0,0,.23.55.64.64,0,0,0,.56.13.37.37,0,0,0,.15,0,1,1,0,0,0,.4-.25,6.55,6.55,0,0,1,3.22-.67,12.18,12.18,0,0,1,8.26,3.46l.07.07a1,1,0,0,0,1.38,0l.06-.07a12.17,12.17,0,0,1,8.27-3.47,6.48,6.48,0,0,1,3.22.67,1.21,1.21,0,0,0,.44.27,1.12,1.12,0,0,0,.47,0,.69.69,0,0,0,.51-.66v-.39a.7.7,0,0,0-.22-.5,9.28,9.28,0,0,0-6.51-2.81,11.8,11.8,0,0,0-6.92,2.62"></path><path class="cls-2" d="M96.41,66.85a.67.67,0,0,0-.35.42l-.08.27a.68.68,0,0,0,.11.6.66.66,0,0,0,.49.27.19.19,0,0,0,.1,0,1,1,0,0,0,.39-.1,1.69,1.69,0,0,1,.49-.06A7,7,0,0,1,103.28,72l0,.06a.86.86,0,0,0,.51.41,1.17,1.17,0,0,0,.26,0,.82.82,0,0,0,.4-.1l.06,0a8,8,0,0,1,3.57-.88,5.42,5.42,0,0,1,3.66,1.17A.93.93,0,0,0,112,73a2.1,2.1,0,0,0,.26.13l.12,0h.07a.76.76,0,0,0,.32-.08.7.7,0,0,0,.34-.41l.06-.24a.58.58,0,0,0,0-.19.62.62,0,0,0-.09-.34,6,6,0,0,0-5.44-3.27,8.57,8.57,0,0,0-2.89.54,7,7,0,0,0-5.4-3,6.65,6.65,0,0,0-3,.76"></path><path class="cls-2" d="M79.47,79.18l0,.36a.66.66,0,0,0,.32.54.69.69,0,0,0,.54.09l.11,0a.92.92,0,0,0,.35-.26,6,6,0,0,1,3.06-.69,9.89,9.89,0,0,1,6.34,2.4l0,0a.94.94,0,0,0,.62.24H91a.93.93,0,0,0,.63-.31l0-.06a9.64,9.64,0,0,1,7-3.24,4.71,4.71,0,0,1,2.09.38,1,1,0,0,0,.42.21.59.59,0,0,0,.29,0,.53.53,0,0,0,.17,0,.67.67,0,0,0,.45-.69v-.31a.71.71,0,0,0-.25-.48,7.83,7.83,0,0,0-5.12-2,9.53,9.53,0,0,0-6,2.48A10.07,10.07,0,0,0,85.35,76a7.65,7.65,0,0,0-5.69,2.63.75.75,0,0,0-.19.51"></path><path class="cls-2" d="M38.9,85.62a8.7,8.7,0,0,1,8.7-8.69l.55,0a11.76,11.76,0,1,1,22.29,6,13.14,13.14,0,0,1-2.85,26l-17.54-.1h0a9.29,9.29,0,0,1-6.77-15.67A8.69,8.69,0,0,1,38.9,85.62Z"></path></g><path class="cls-2" d="M52.74,15.21h2.13v5.16l2.34-5.16h2L57,20.44,59.48,27H57.35l-2-5.33-.53.88V27H52.74Z"></path><path class="cls-2" d="M62.21,15.21H64.5L66.85,27h-2l-.46-2.71h-2L61.88,27h-2Zm2,7.67L63.37,18l-.8,4.93Z"></path><path class="cls-2" d="M68,15.21h2.82c2.35,0,3.68.75,3.68,3.12,0,1.4-.34,2.39-1.44,2.84L74.72,27H72.58l-1.41-5.38h-1V27H68Zm2.81,5c1.23,0,1.68-.54,1.68-1.8s-.33-1.77-1.57-1.77h-.79v3.57Z"></path><path class="cls-2" d="M77.91,15.21H80.2L82.55,27h-2l-.47-2.71h-2L77.58,27h-2Zm2,7.67L79.07,18l-.79,4.93Z"></path><path class="cls-2" d="M83.38,23.53l1.84-.36c.06,1.39.39,2.29,1.34,2.29.68,0,1-.47,1-1.1a2.82,2.82,0,0,0-1.29-2.25l-1.48-1.29A3.48,3.48,0,0,1,83.4,18a2.72,2.72,0,0,1,3-2.9c2.2,0,2.82,1.48,2.94,3.19l-1.84.32c0-1.11-.21-1.93-1.15-1.93a1,1,0,0,0-1,1.1,2.13,2.13,0,0,0,.95,1.77l1.47,1.29a4.35,4.35,0,0,1,1.75,3.4,2.78,2.78,0,0,1-2.94,2.89C84.48,27.11,83.47,25.86,83.38,23.53Z"></path><path class="cls-2" d="M92.53,15.21h2.29L97.17,27h-2l-.46-2.71h-2L92.2,27h-2Zm2,7.67L93.69,18l-.8,4.93Z"></path><path class="cls-2" d="M98.35,15.21h2.13V25.49h2.85V27h-5Z"></path><path class="cls-2" d="M54.38,42,52,34.71h2l1.45,4.65,1.37-4.65h2L56.43,42v4.48h-2Z"></path><path class="cls-2" d="M61.11,34.71H63.4l2.35,11.74h-2l-.46-2.71h-2l-.47,2.71h-2Zm2,7.67-.8-4.93-.8,4.93Z"></path><path class="cls-2" d="M70,46.61v.72c1.08,0,1.8.48,1.8,1.38s-.91,1.47-2,1.47a3.7,3.7,0,0,1-1-.16V49.1a2.32,2.32,0,0,0,.78.12c.51,0,.88-.15.88-.54s-.59-.71-1.27-.78V46.57c-1.7-.25-2.51-1.47-2.58-3.54l1.84-.36c.06,1.39.39,2.29,1.33,2.29.68,0,1-.47,1-1.1a2.82,2.82,0,0,0-1.29-2.25L68,40.32a3.48,3.48,0,0,1-1.36-2.84,2.72,2.72,0,0,1,3-2.9c2.2,0,2.83,1.48,2.94,3.19l-1.84.32c0-1.11-.2-1.93-1.14-1.93a1,1,0,0,0-1,1.1,2.14,2.14,0,0,0,1,1.77L71,40.32a4.33,4.33,0,0,1,1.76,3.4A2.78,2.78,0,0,1,70,46.61Z"></path><path class="cls-2" d="M75.73,34.71H78l2.34,11.74h-2l-.47-2.71h-2l-.48,2.71h-2Zm2,7.67-.8-4.93-.79,4.93Z"></path><path class="cls-2" d="M81.71,34.71h2.22l1.67,8.13,1.72-8.13h2.16l.22,11.74H88.11l-.18-8.16-1.66,8.16H85l-1.7-8.19-.16,8.19H81.51Z"></path><path class="cls-2" d="M11.45,21.2c-1.13.62-3.12,1.28-4.33,1.91V18.27c1.13-.59,4.68-2.42,5.73-3.51H18V46.35H11.45Z"></path><path class="cls-2" d="M23.11,37.11h6.28c0,3.62.43,5.11,2.42,5s2.06-2.46,2.06-6.59c0-3.08-.35-5.42-2.45-5.42-1.33,0-2.15.89-2.5,2.88H23.31l.58-18.21H38.63v5.46H29.12l-.35,6.51c.5-.7,2.14-1.32,3.82-1.48,4.83-.51,7.41,3.32,7.41,10.1s-1.21,11.59-8.62,11.59C24.44,46.94,23.11,43,23.11,37.11Z"></path></g></g></g></svg> 