<?xml version="1.0" encoding="UTF-8"?> <svg xmlns="http://www.w3.org/2000/svg" viewBox="0 0 164.33 164.33"><defs><style>.cls-1{fill:#cd8b2a;}.cls-2{fill:#fff;}</style></defs><g id="Layer_2" data-name="Layer 2"><g id="UN_LOGOSUZ" data-name="UN LOGOSUZ"><g id="AMAC_12" data-name="AMAC 12"><rect id="arkaplan" class="cls-1" width="164.33" height="164.33"></rect><path id="simge" class="cls-2" d="M123.59,87.1c-7.29-5.76-17-5.88-20.49-5l-.41.1c-4.08,1-10.57,2.56-18.17,12,0,0-.09.1-.13.16l-.09.11a.62.62,0,0,0-.13.37.72.72,0,0,0,.08.32l.18.29c.95,1.59,2.16,3.64,3.17,5.54l0,0a.65.65,0,0,0,1,.18c0-.06.09-.13.14-.2,6.74-9.32,12-10.61,15.63-11.45l.43-.1a19.61,19.61,0,0,1,14,3.61c4,3.15,6,8.16,6,14.89,0,11.29-5.49,15.7-10.09,17.42-7.14,2.67-14-.9-14-.93l-.3-.15c-3.92-1.7-9.77-5.24-15.29-16.31C74.08,85.62,64.78,83.52,58.63,82.13l-.33-.08c-2.8-.63-12.53-1.08-20.17,5-4,3.19-8.76,9.39-8.76,20.8,0,7,1.43,11.55,5.1,16.38.81,1.1,9,11.68,25,8.63a24,24,0,0,0,9.79-4.55l3.51,3.16a.57.57,0,0,0,.8,0,.54.54,0,0,0,.14-.38v0l2.53-15.54v-.17a.55.55,0,0,0-.19-.42.54.54,0,0,0-.37-.14h-.11l-.16,0L60.47,119l-.27,0a.51.51,0,0,0-.28.17.56.56,0,0,0,0,.81l.17.16,3.34,3A15.29,15.29,0,0,1,58,125.45c-11.51,2.2-17.19-5.34-17.41-5.64l-.08-.11c-2.67-3.51-3.58-6.49-3.58-11.83,0-6.75,2-11.76,5.91-14.89a19,19,0,0,1,13.79-3.55l.33.07c5,1.14,11.95,2.7,21.46,21.81,4.94,9.93,11.13,16.41,18.92,19.83a27.42,27.42,0,0,0,11.86,2.75,23.64,23.64,0,0,0,8.26-1.46c4.51-1.69,15-7.44,15-24.51,0-11.41-4.83-17.62-8.88-20.82"></path><path class="cls-2" d="M56.23,24.73l1.84-.37c.06,1.4.39,2.29,1.33,2.29.69,0,1-.46,1-1.1a2.83,2.83,0,0,0-1.29-2.24L57.61,22a3.49,3.49,0,0,1-1.37-2.85,2.72,2.72,0,0,1,3-2.89c2.21,0,2.83,1.47,2.95,3.18l-1.84.32c-.05-1.1-.21-1.92-1.15-1.92a1,1,0,0,0-1,1.1,2.15,2.15,0,0,0,1,1.77L60.67,22a4.35,4.35,0,0,1,1.75,3.4,2.78,2.78,0,0,1-2.94,2.89C57.33,28.31,56.32,27.06,56.23,24.73Z"></path><path class="cls-2" d="M63.49,24.47V20.06c0-2.38.87-3.78,3.4-3.78s3.37,1.4,3.37,3.78v4.41c0,2.36-.87,3.84-3.37,3.84S63.49,26.84,63.49,24.47Zm4.6.5v-5.4c0-1-.16-1.73-1.2-1.73s-1.22.74-1.22,1.73V25c0,1,.16,1.76,1.22,1.76S68.09,25.94,68.09,25Z"></path><path class="cls-2" d="M71.85,16.41h2.82c2.35,0,3.68.75,3.68,3.11,0,1.41-.34,2.39-1.45,2.84l1.64,5.79H76.4L75,22.77H74v5.38H71.85Zm2.81,5c1.23,0,1.68-.54,1.68-1.8s-.33-1.77-1.57-1.77H74v3.57Z"></path><path class="cls-2" d="M79.85,24.35V16.41h2.09V24.6c0,1.11.13,2.11,1.21,2.11s1.24-1,1.24-2.11V16.41h2.07v7.94c0,2.46-.68,4-3.31,4S79.85,26.81,79.85,24.35Z"></path><path class="cls-2" d="M88.32,16.41h2.21l1.67,8.13,1.73-8.13h2.16l.21,11.74H94.71L94.54,20l-1.67,8.16H91.58L89.88,20l-.16,8.19H88.11Z"></path><path class="cls-2" d="M98.05,16.41h2.13V26.68H103v1.47h-5Z"></path><path class="cls-2" d="M104,24.35V16.41H106V24.6c0,1.11.13,2.11,1.21,2.11s1.24-1,1.24-2.11V16.41h2.07v7.94c0,2.46-.68,4-3.31,4S104,26.81,104,24.35Z"></path><path class="cls-2" d="M56.43,43.85V35.91h2.09V44.1c0,1.11.13,2.11,1.22,2.11S61,45.21,61,44.1V35.91H63v7.94c0,2.46-.68,4-3.3,4S56.43,46.31,56.43,43.85Zm1-11.31H59.2v1.89H57.46Zm2.84,0H62v1.89H60.3Z"></path><path class="cls-2" d="M64.73,35.91h2.82c2.35,0,3.69.75,3.69,3.11,0,1.41-.35,2.39-1.45,2.84l1.63,5.79H69.28l-1.41-5.38h-1v5.38H64.73Zm2.81,5c1.23,0,1.68-.54,1.68-1.8s-.33-1.77-1.56-1.77h-.8v3.57Z"></path><path class="cls-2" d="M72.86,35.91h4.93v1.5H75v3.38H77.2v1.49H75v3.9h2.83v1.47h-5Z"></path><path class="cls-2" d="M80.24,37.49H78.37V35.91h5.84v1.58H82.39V47.65H80.24Z"></path><path class="cls-2" d="M85.35,35.91h2.11V47.65H85.35Zm.1-3.19h1.91v2H85.45Z"></path><path class="cls-2" d="M89.45,35.91h2.22L93.33,44l1.73-8.13h2.16l.22,11.74h-1.6l-.17-8.16L94,47.65H92.71L91,39.46l-.16,8.19h-1.6Z"></path><path class="cls-2" d="M102.15,35.91H104l1.56,8.3,1.46-8.3H109l-2.36,11.74h-2.11Z"></path><path class="cls-2" d="M110.18,35.91h4.93v1.5h-2.8v3.38h2.21v1.49h-2.21v3.9h2.83v1.47h-5Z"></path><path class="cls-2" d="M57.69,57H55.82V55.41h5.85V57H59.84V67.15H57.69Z"></path><path class="cls-2" d="M62.65,63.35V55.41h2.09V63.6c0,1.11.13,2.11,1.22,2.11s1.23-1,1.23-2.11V55.41h2.07v7.94c0,2.46-.68,4-3.3,4S62.65,65.81,62.65,63.35Zm1-11.31h1.74v1.89H63.68Zm2.84,0h1.74v1.89H66.52Z"></path><path class="cls-2" d="M71,55.41h2.13v5.16l2.33-5.16h2l-2.25,5.23,2.48,6.51H75.56l-2-5.34-.52.89v4.45H71Z"></path><path class="cls-2" d="M78.66,55.41h4.93v1.5h-2.8v3.38H83v1.49H80.79v3.9h2.83v1.47h-5Z"></path><path class="cls-2" d="M86,57H84.17V55.41H90V57H88.19V67.15H86Z"></path><path class="cls-2" d="M91.15,55.41h2.11V67.15H91.15Zm.1-3.19h1.91v2H91.25Z"></path><path class="cls-2" d="M95.25,55.41h2.22l1.66,8.13,1.73-8.13H103l.22,11.74h-1.6L101.47,59,99.8,67.15H98.51L96.81,59l-.16,8.19h-1.6Z"></path><path class="cls-2" d="M13.8,22.47c-1.13.62-3.12,1.28-4.33,1.91V19.54C10.6,19,14.15,17.12,15.21,16h5.1V47.62H13.8Z"></path><path class="cls-2" d="M25.38,43,33,31.4c1.68-2.58,3.35-4.84,3.35-7.57,0-1.79-.78-2.69-2-2.69-2.15,0-2.66,1.91-2.66,4.33V27H25.31V25.35c0-5.58,2.49-9.75,8.85-9.75,5.65,0,8.58,3.12,8.58,8.35,0,3.82-2.07,6.63-4.33,9.94l-5.77,8.62h9.24v5.11H25.38Z"></path></g></g></g></svg> 