<?xml version="1.0" encoding="UTF-8"?> <svg xmlns="http://www.w3.org/2000/svg" viewBox="0 0 164.33 164.33"><defs><style>.cls-1{fill:#48773c;}.cls-2{fill:#fff;}</style></defs><g id="Layer_2" data-name="Layer 2"><g id="UN_LOGOSUZ" data-name="UN LOGOSUZ"><g id="AMAC_13" data-name="AMAC 13"><rect id="arkaplan" class="cls-1" x="0.11" y="0.11" width="164.11" height="164.11" transform="matrix(0, -1, 1, 0, -0.11, 164.22)"></rect><path id="simge" class="cls-2" d="M143.3,102.76a75.51,75.51,0,0,0-121.19-.17l-.48.68.47.69a75.51,75.51,0,0,0,121.2.16c.19-.26.35-.49.47-.68-.12-.19-.28-.42-.47-.68m-81-15.17c.33-.48,1.42-1.86,1.56-2a1.91,1.91,0,0,1,1.23-.51c.39-.07.91.15,1,.44a3.53,3.53,0,0,1-.35,1.62A4.19,4.19,0,0,1,63,88.32c-.6-.09-.83-.55-.71-.73M61,90.19l.13-.16a3.43,3.43,0,0,1,2-.73c.63-.11,1.48.22,1.58.64s-1.59,1.18-1.9,1.47c-.88.81-2.26,2.46-3.07,2.64a1.09,1.09,0,0,1-.66-.07A24.9,24.9,0,0,1,61,90.19m13.64,28.1a7.11,7.11,0,0,1-1.57,3.26,5.24,5.24,0,0,1-3.47,1.32c-1.16-.09-1.32-3.18-1.32-4.77,0-.55-.77,1.08-1.18-2.23-.25-2.12-1.62.22-1.71-1.2s-.77-1.13-1.49-2-1.59.09-2.59.53-.58.67-2,.23l-.09,0a25.38,25.38,0,0,1-2-9.92c0-.86,0-1.7.13-2.54a1,1,0,0,1,.15-.24c1.35-1.59,1.32-2,1.32-2l1.5-.52a24.72,24.72,0,0,1,4.17,1c1.47.56,3.8,1.81,5.15,1.26,1-.4,1.75-.93,1.65-1.75-.1-1-.91-1.26-1.88-.58-.36.26-1.13-1.54-1.73-1.45s.74,2.11.23,2.2-1.53-2.11-1.7-2.46-1-1.24-1.68-.57c-1.5,1.43-3.94,1.34-4.44,1.7-1.49,1.12-1.88-.37-1.85-1.27.06-.21.13-.41.19-.62a3.08,3.08,0,0,1,2.84-.31c.66.44,1.13-.11,1.39-.38a.9.9,0,0,0,0-1c-.16-.36.33-.62.68-.71a18.47,18.47,0,0,0,1.93-1.14,6.29,6.29,0,0,1,3.87,0,2,2,0,0,0,2.54-.51,6.86,6.86,0,0,1,1.85-1.54c.37-.17-.91-1.36-2-.07S70,91.42,69.53,91.42s-3.43-.74-3.79-1.67.92-1.62,2-2.15,4-.5,4.81-.68c1.55-.33,3.52-1.1,4.51-.43s-4.15,1.83-2.46,2.75c.6.33,3.32-1.56,4.25-2,2.19-1.13-2.12-1.51-1.56-3.81.64-2.59-5.29-1.6-8.24-1.38a25.46,25.46,0,0,1,38.47,15.56,3.92,3.92,0,0,1-.13,1.18,1.66,1.66,0,0,1-3,.23c-.26-.38-1.35-1.41-1.31.35s1.71,2,.08,3a6.34,6.34,0,0,1-2.68,1.07c-.75.26-1.48,2.08-1.3,3s2.49,3.64.77,3.52c-.4,0-3.44-2.11-3.94-3.45s-1.11-2.78-1.52-3.85a1.52,1.52,0,0,0-2.4-.7c-.91.61.25,1.24-.4,2.56s-1.12,2.51-2.08,1.41c-2.48-2.85-6.09-1.45-6.66-4.62-.3-1.72-1.78-1.56-3-2.53S78,97.3,77.82,98s3.89,3.85,4.18,4.68c.43,1.23-1.23,2.32-2.44,2.61s-1.74-.68-2.92-1.92-1.7-2.12-1.79-1.15a5.57,5.57,0,0,0,2.33,4.23c1,.66,2.19,1,1.85,2s0,.46-1.16,1.6-1.38,1.52-1.3,3.11-.33,1.68-.58,3-.82.18-1.33,2.12M102,108.16c.86-.06,2.14,1.12,1.64,1.58a2.29,2.29,0,0,1-2.43-.22c-.64-.5.4-1.32.79-1.36m-1.08-.78c-.28-.1-.52-.36-.73-1s.32-1,.84-.73,1.2,1,1.2,1.46-1,.37-1.31.26m-11.25-.06a2.29,2.29,0,0,1-2.43-.22c-.64-.5.41-1.33.79-1.36.86-.07,2.14,1.13,1.64,1.58m-10.41,5.05c-.35.57-1.31,4.85-2,4.35s.27-5,.46-5.31c1-1.84,3.18-1.75,1.5,1M82.71,129a25.61,25.61,0,0,1-7.16-1,1.06,1.06,0,0,1-.3-1.25c.79-2,3.14-2.85,5-3,4.13-.39,9.56,2.7,10.42,2.2s2.62-2.76,5.18-2.66a3.93,3.93,0,0,1,2.32.58A25.44,25.44,0,0,1,82.71,129m18-7.4a4.34,4.34,0,0,1-.8-.29c-1.39-.71-1.22.42-1.91.17s.78-1.84-1.28-.5-1.49-.21-2.38-2.48,1-4.86,2.64-5.44a33.16,33.16,0,0,1,4.63-1.22c3.06-.76,3.71-2.57,4.27-1.46l.29.58a3.86,3.86,0,0,1,.39,1.66,25.4,25.4,0,0,1-5.85,9m7-12.85c-.69-.19-3.54-4.15-1.28-6.74.38-.43-.75-1.69-.44-1.72a2.08,2.08,0,0,1,2.22,1.78c0,.49,0,1,0,1.48a25.48,25.48,0,0,1-.54,5.2"></path><path class="cls-2" d="M53.39,14.17h2.12V25.91H53.39Zm.1-3.19h1.92v2H53.49Z"></path><path class="cls-2" d="M57.32,14.17h2.13v5.16l2.33-5.16h2L61.58,19.4l2.48,6.51H61.93l-2-5.34-.52.89v4.45H57.32Z"></path><path class="cls-2" d="M65,14.17h2.13V24.45H70v1.46H65Z"></path><path class="cls-2" d="M71.2,14.17h2.11V25.91H71.2ZM71.3,11h1.91v2H71.3Z"></path><path class="cls-2" d="M75.3,14.17h2.22l1.66,8.13,1.73-8.13h2.16l.22,11.74h-1.6l-.17-8.16-1.67,8.16H78.56l-1.7-8.19-.16,8.19H75.1Z"></path><path class="cls-2" d="M53.33,33.67h4.93v1.5h-2.8v3.38h2.21v1.5H55.46V44h2.83v1.46h-5Z"></path><path class="cls-2" d="M61.18,40.93,58.8,33.67h2l1.45,4.65,1.36-4.65h2l-2.35,7.26v4.48h-2Z"></path><path class="cls-2" d="M66.6,33.67h2.13V44h2.86v1.46h-5Z"></path><path class="cls-2" d="M72.7,33.67h4.93v1.5h-2.8v3.38H77v1.5H74.83V44h2.83v1.46h-5Z"></path><path class="cls-2" d="M79.08,33.67H81.3L83,41.8l1.72-8.13h2.16l.22,11.74H85.48l-.18-8.16-1.66,8.16H82.35l-1.7-8.19-.16,8.19H78.88Z"></path><path class="cls-2" d="M88.87,33.67H91V45.41H88.87Zm.1-3.19h1.92v2H89Z"></path><path class="cls-2" d="M14,19.83c-1.13.62-3.12,1.28-4.33,1.91V16.9c1.13-.58,4.68-2.42,5.73-3.51h5.11V45H14Z"></path><path class="cls-2" d="M25.5,35.66V34.53H32v1.13c0,3.16.51,4.41,2.3,4.41s2.11-1.37,2.11-4.21c0-3.12-.63-4.76-3.32-4.84H31.9V26.54H33c2.77,0,3.48-1.45,3.48-4.65,0-2.45-.55-3.78-2.31-3.78S32,19.71,32,22v1.64H25.5V21.74c0-5.7,3.24-8.82,8.62-8.82s8.74,2.93,8.74,8.54c0,3.71-1.72,6.36-3.86,7,2.18.82,3.86,2.77,3.86,7.29,0,5.77-2.34,9.87-8.66,9.87C27.57,45.57,25.5,41.55,25.5,35.66Z"></path></g></g></g></svg> 