<?xml version="1.0" encoding="UTF-8"?> <svg xmlns="http://www.w3.org/2000/svg" viewBox="0 0 164.33 164.33"><defs><style>.cls-1{fill:#e01a83;}.cls-2{fill:#fff;}</style></defs><g id="Layer_2" data-name="Layer 2"><g id="UN_LOGOSUZ" data-name="UN LOGOSUZ"><g id="AMAC_10" data-name="AMAC 10"><rect id="arkaplan" class="cls-1" width="164.33" height="164.33"></rect><g id="simge"><path class="cls-2" d="M96.43,108.53H66.16a.34.34,0,0,0-.32.36V118a.35.35,0,0,0,.32.37H96.43a.36.36,0,0,0,.33-.37v-9.1a.35.35,0,0,0-.33-.36"></path><path class="cls-2" d="M96.43,89.17H66.16a.35.35,0,0,0-.32.37v9.1a.34.34,0,0,0,.32.36H96.43a.35.35,0,0,0,.33-.36v-9.1a.36.36,0,0,0-.33-.37"></path><path class="cls-2" d="M96,75.42,81.48,60.9a.25.25,0,0,0-.36,0L66.59,75.42a.26.26,0,0,0,.18.43H95.83A.25.25,0,0,0,96,75.42Z"></path><path class="cls-2" d="M109.64,118.47l14.53-14.53a.26.26,0,0,0,0-.35L109.64,89.06a.25.25,0,0,0-.43.18v29.05A.25.25,0,0,0,109.64,118.47Z"></path><path class="cls-2" d="M66.59,132.11l14.53,14.52a.25.25,0,0,0,.36,0L96,132.11a.25.25,0,0,0-.17-.43H66.77A.26.26,0,0,0,66.59,132.11Z"></path><path class="cls-2" d="M53,89.06,38.43,103.59a.24.24,0,0,0,0,.35L53,118.47a.25.25,0,0,0,.43-.18V89.24A.25.25,0,0,0,53,89.06Z"></path></g><path class="cls-2" d="M58.64,15.44h4.93V17h-2.8v3.37H63v1.5H60.77v3.9H63.6v1.46h-5Z"></path><path class="cls-2" d="M68,27.34v.72c1.08,0,1.8.48,1.8,1.38s-.91,1.47-2,1.47a3.75,3.75,0,0,1-1-.16v-.92a2.32,2.32,0,0,0,.78.12c.51,0,.88-.15.88-.54s-.59-.71-1.27-.78V27.3c-1.7-.25-2.51-1.47-2.58-3.54l1.84-.36c.06,1.39.39,2.29,1.33,2.29.68,0,1-.47,1-1.1a2.83,2.83,0,0,0-1.3-2.25l-1.47-1.29a3.48,3.48,0,0,1-1.37-2.84,2.72,2.72,0,0,1,3-2.9c2.21,0,2.83,1.48,2.94,3.19l-1.83.32c0-1.11-.21-1.93-1.15-1.93a1,1,0,0,0-1,1.1,2.14,2.14,0,0,0,1,1.77L69,21.05a4.33,4.33,0,0,1,1.76,3.41A2.77,2.77,0,0,1,68,27.34Z"></path><path class="cls-2" d="M72.07,15.44h2.12V27.18H72.07Zm.1-3.19h1.91v2H72.17Z"></path><path class="cls-2" d="M77.17,17H75.3V15.44h5.84V17H79.32V27.18H77.17Z"></path><path class="cls-2" d="M81.93,23.76l1.84-.36c.06,1.39.39,2.29,1.33,2.29.69,0,1-.47,1-1.1a2.83,2.83,0,0,0-1.28-2.25l-1.48-1.29a3.46,3.46,0,0,1-1.37-2.84,2.72,2.72,0,0,1,3-2.9c2.21,0,2.83,1.48,3,3.19l-1.85.32c0-1.11-.2-1.93-1.14-1.93a1,1,0,0,0-1,1.1,2.14,2.14,0,0,0,1,1.77l1.47,1.29a4.35,4.35,0,0,1,1.75,3.41,2.78,2.78,0,0,1-2.94,2.88C83,27.34,82,26.09,81.93,23.76Z"></path><path class="cls-2" d="M89.44,15.44h2.12V27.18H89.44Zm.1-3.19h1.91v2H89.54Z"></path><path class="cls-2" d="M93,25.8l3.14-8.88h-3V15.44h5.14v1.1L95,25.72H98.3v1.46H93Z"></path><path class="cls-2" d="M99.53,15.44h2.13V25.72h2.86v1.46h-5Z"></path><path class="cls-2" d="M105.69,15.44h2.12V27.18h-2.12Zm.1-3.19h1.92v2h-1.92Z"></path><path class="cls-2" d="M109.62,15.44h2.13V20.6l2.34-5.16h2l-2.25,5.23,2.48,6.51h-2.13l-2-5.33-.53.88v4.45h-2.13Z"></path><path class="cls-2" d="M117.34,15.44h2.13V25.72h2.85v1.46h-5Z"></path><path class="cls-2" d="M123.44,15.44h4.93V17h-2.8v3.37h2.21v1.5h-2.21v3.9h2.83v1.46h-5Z"></path><path class="cls-2" d="M129.65,15.44h2.82c2.35,0,3.69.75,3.69,3.12,0,1.4-.35,2.39-1.45,2.84l1.63,5.78H134.2l-1.41-5.38h-1v5.38h-2.13Zm2.81,5c1.23,0,1.68-.54,1.68-1.8s-.33-1.77-1.56-1.77h-.8v3.57Z"></path><path class="cls-2" d="M137.84,15.44H140V27.18h-2.12Zm.1-3.19h1.91v2h-1.91Z"></path><path class="cls-2" d="M141.77,15.44h1.49l2.86,6.7v-6.7h1.77V27.18h-1.43l-2.86-7v7h-1.83Z"></path><path class="cls-2" d="M60.4,34.94h2.29L65,46.68h-2L62.59,44H60.54l-.48,2.71h-2Zm2,7.67-.79-4.93-.8,4.93Z"></path><path class="cls-2" d="M65.82,45.3,69,36.42H66V34.94h5.15V36l-3.28,9.18h3.29v1.46H65.82Z"></path><path class="cls-2" d="M74.13,34.94h2.29l2.35,11.74h-2L76.32,44h-2l-.48,2.71h-2Zm2,7.67-.79-4.93-.8,4.93Z"></path><path class="cls-2" d="M79.94,34.94h2.13V45.22h2.86v1.46h-5Z"></path><path class="cls-2" d="M86.64,36.52H84.77V34.94h5.84v1.58H88.79V46.68H86.64Z"></path><path class="cls-2" d="M91.75,34.94h2.11V46.68H91.75Z"></path><path class="cls-2" d="M95.67,34.94H97.8V45.22h2.86v1.46h-5Z"></path><path class="cls-2" d="M102,34.94h2.22l1.67,8.13,1.72-8.13h2.16l.22,11.74h-1.59l-.18-8.16-1.67,8.16h-1.29l-1.69-8.19-.16,8.19h-1.61Z"></path><path class="cls-2" d="M113.44,34.94h2.29l2.34,11.74h-2L115.63,44h-2l-.48,2.71h-2Zm2,7.67-.79-4.93-.8,4.93Z"></path><path class="cls-2" d="M118.9,43.26l1.84-.36c.06,1.39.4,2.29,1.34,2.29.68,0,1-.47,1-1.1a2.82,2.82,0,0,0-1.29-2.25l-1.48-1.29a3.48,3.48,0,0,1-1.36-2.84,2.72,2.72,0,0,1,3-2.9c2.2,0,2.82,1.48,2.94,3.19l-1.84.32c0-1.11-.2-1.93-1.15-1.93a1,1,0,0,0-1,1.1,2.12,2.12,0,0,0,1,1.77l1.46,1.29A4.32,4.32,0,0,1,125.09,44a2.78,2.78,0,0,1-2.94,2.88C120,46.84,119,45.59,118.9,43.26Z"></path><path class="cls-2" d="M126.41,34.94h2.12V46.68h-2.12Z"></path><path class="cls-2" d="M16.72,20.87c-1.13.62-3.12,1.29-4.32,1.91V17.94c1.13-.58,4.68-2.41,5.73-3.51h5.11V46H16.72Z"></path><path class="cls-2" d="M28.81,37.56V23.25c0-5.54,2.7-9.28,8.62-9.28S46,17.71,46,23.25V37.56c0,5.31-3,9-8.58,9S28.81,42.94,28.81,37.56Zm10.57-.15v-14c0-1.28,0-3.62-2-3.62s-2,2.34-2,3.62v14c0,1.21.16,3.39,2,3.39S39.38,38.62,39.38,37.41Z"></path></g></g></g></svg> 