<?xml version="1.0" encoding="UTF-8"?> <svg xmlns="http://www.w3.org/2000/svg" viewBox="0 0 164.33 164.33"><defs><style>.cls-1{fill:#007dbb;}.cls-2{fill:#fff;}</style></defs><g id="Layer_2" data-name="Layer 2"><g id="UN_LOGOSUZ" data-name="UN LOGOSUZ"><g id="AMAC_14" data-name="AMAC 14"><rect id="arkaplan" class="cls-1" width="164.33" height="164.33"></rect><g id="simge"><path class="cls-2" d="M123.39,119.57c-2.08-2.81-15.5-19.92-34.31-19.92-16.34,0-33.82,14.82-33.82,14.82s-6.57-13.44-20-14.73l-.25,0h-.08a.56.56,0,0,0-.52.54,1.51,1.51,0,0,0,.22.49c1.73,2.87,6.14,11,6.14,19.22s-4.44,16.39-6.15,19.25l-.12.18a.58.58,0,0,0-.09.29.55.55,0,0,0,.5.53l.15,0h.14c13.47-1.25,20.06-14.73,20.06-14.73s17.48,14.82,33.82,14.82c18.81,0,32.23-17.11,34.31-19.91a2.07,2.07,0,0,1,.15-.2.59.59,0,0,0,0-.2.65.65,0,0,0,0-.21c-.05-.05-.09-.12-.15-.19m-23.85,2.56a5.49,5.49,0,1,1,5.5-5.49,5.49,5.49,0,0,1-5.5,5.49"></path><path class="cls-2" d="M54,84.31a.47.47,0,0,1,.14-.14.55.55,0,0,1,.3-.11.48.48,0,0,1,.36.16l0,0c10.26,9.78,21,1.85,23.25,0l.22-.21a.52.52,0,0,1,.21,0,.46.46,0,0,1,.21,0l.22.21c2.24,1.85,13,9.78,23.26,0a0,0,0,0,1,0,0,.48.48,0,0,1,.36-.16.52.52,0,0,1,.3.11.66.66,0,0,1,.15.14c2,2,10.58,9.36,19.67,1.46a.51.51,0,0,0,.16-.38V81.63a.54.54,0,0,0-.54-.53l-.11,0-.27.14c-2.8,1.4-11.46,4.72-19.33-2.71-.07-.07-.15-.14-.22-.22a.48.48,0,0,0-.23,0,.33.33,0,0,0-.17,0,.45.45,0,0,0-.27.2c-2.34,1.78-13.1,9.07-22.68.13l-.14-.14a.54.54,0,0,0-.39-.15.54.54,0,0,0-.38.15l-.15.14c-9.57,8.94-20.34,1.65-22.68-.13a.43.43,0,0,0-.27-.2.33.33,0,0,0-.17,0,.42.42,0,0,0-.22,0l-.24.22C46.57,86,37.91,82.66,35.12,81.26l-.28-.14-.1,0a.54.54,0,0,0-.54.53v3.76a.55.55,0,0,0,.15.38c9.09,7.9,17.69.5,19.68-1.46"></path><path class="cls-2" d="M34.84,67.49l-.1,0a.54.54,0,0,0-.54.54v3.75a.59.59,0,0,0,.15.39C43.44,80,52,72.64,54,70.69a.41.41,0,0,1,.14-.15.54.54,0,0,1,.3-.1.51.51,0,0,1,.36.14l0,0c10.26,9.79,21,1.86,23.25,0l.22-.2a.54.54,0,0,1,.21,0,.5.5,0,0,1,.21,0l.22.2c2.24,1.86,13,9.79,23.26,0,0,0,0,0,0,0a.51.51,0,0,1,.36-.14.51.51,0,0,1,.3.1.53.53,0,0,1,.15.15c2,2,10.58,9.35,19.67,1.46a.6.6,0,0,0,.16-.39V68a.54.54,0,0,0-.54-.54l-.11,0-.27.14c-2.8,1.4-11.46,4.73-19.33-2.71-.07-.07-.15-.14-.22-.22a.64.64,0,0,0-.23,0,.86.86,0,0,0-.17,0,.57.57,0,0,0-.27.21C99.41,66.68,88.65,74,79.07,65l-.14-.14a.54.54,0,0,0-.77,0L78,65c-9.57,8.94-20.34,1.66-22.68-.13a.52.52,0,0,0-.27-.21.86.86,0,0,0-.17,0,.59.59,0,0,0-.22,0c-.07.08-.16.15-.23.22C46.57,72.36,37.91,69,35.12,67.63c-.1,0-.2-.09-.28-.14"></path></g><path class="cls-2" d="M52.81,22.08l1.84-.36C54.71,23.11,55,24,56,24c.69,0,1-.46,1-1.1a2.85,2.85,0,0,0-1.29-2.25l-1.48-1.29a3.47,3.47,0,0,1-1.37-2.84,2.72,2.72,0,0,1,3-2.9c2.21,0,2.83,1.48,2.95,3.19L57,17.14c-.05-1.1-.21-1.93-1.15-1.93a1,1,0,0,0-1,1.1,2.13,2.13,0,0,0,1,1.77l1.47,1.29A4.39,4.39,0,0,1,59,22.78a2.78,2.78,0,0,1-2.94,2.88C53.91,25.66,52.9,24.42,52.81,22.08Z"></path><path class="cls-2" d="M60.18,21.71v-8h2.08V22c0,1.12.13,2.12,1.22,2.12s1.23-1,1.23-2.12V13.76h2.08v8c0,2.46-.69,3.95-3.31,3.95S60.18,24.17,60.18,21.71Z"></path><path class="cls-2" d="M68.47,13.76h2.77c2.85,0,3.72,1.15,3.72,3.65v4.28c0,2.58-.88,3.81-3.64,3.81H68.47ZM71.27,24c1.46,0,1.52-.78,1.52-2.25V17.27c0-1.41-.15-2-1.55-2H70.6V24Z"></path><path class="cls-2" d="M78.21,13.76H80.5L82.85,25.5h-2l-.47-2.71h-2l-.48,2.71h-2Zm2,7.67-.8-4.93-.8,4.93Z"></path><path class="cls-2" d="M84,13.76h2.13v5.16l2.33-5.16h2.05L88.29,19l2.48,6.51H88.64l-2-5.33-.52.88V25.5H84Z"></path><path class="cls-2" d="M91.8,13.76h2.12V25.5H91.8Zm.1-3.19h1.91v2H91.9Z"></path><path class="cls-2" d="M54.74,40.52l-2.38-7.26h2l1.45,4.65,1.36-4.65h2l-2.35,7.26V45h-2Z"></path><path class="cls-2" d="M61.47,33.26h2.29L66.11,45h-2l-.47-2.71h-2L61.13,45h-2Zm2,7.67L62.63,36l-.8,4.93Z"></path><path class="cls-2" d="M70.34,45.16v.73c1.07,0,1.8.48,1.8,1.37s-.92,1.47-2,1.47a3.82,3.82,0,0,1-1-.16v-.91a2.72,2.72,0,0,0,.78.11c.51,0,.89-.14.89-.53s-.6-.72-1.28-.79V45.12c-1.69-.25-2.5-1.47-2.58-3.54l1.84-.36c.06,1.39.4,2.29,1.34,2.29.68,0,1-.46,1-1.1a2.82,2.82,0,0,0-1.29-2.25l-1.48-1.29A3.46,3.46,0,0,1,67,36a2.72,2.72,0,0,1,3-2.9c2.2,0,2.82,1.48,2.94,3.19l-1.84.32c0-1.1-.2-1.93-1.15-1.93a1,1,0,0,0-1,1.1,2.12,2.12,0,0,0,1,1.77l1.47,1.29a4.36,4.36,0,0,1,1.75,3.41A2.76,2.76,0,0,1,70.34,45.16Z"></path><path class="cls-2" d="M76.08,33.26h2.29L80.72,45h-2l-.46-2.71h-2L75.75,45h-2Zm2,7.67L77.24,36l-.8,4.93Z"></path><path class="cls-2" d="M82.07,33.26h2.22L86,41.39l1.73-8.13h2.16L90.06,45h-1.6l-.17-8.16L86.62,45H85.33l-1.69-8.19L83.48,45H81.87Z"></path><path class="cls-2" d="M13,20.19c-1.13.63-3.12,1.29-4.33,1.91V17.27c1.13-.59,4.68-2.42,5.74-3.51h5.1V45.35H13Z"></path><path class="cls-2" d="M33.66,38.25H24v-4.8l8.23-19.69h7.56V33.41h2.93v4.84H39.74v7.1H33.66Zm0-4.84V20.27L28.9,33.41Z"></path></g></g></g></svg> 