<?xml version="1.0" encoding="UTF-8"?> <svg xmlns="http://www.w3.org/2000/svg" viewBox="0 0 164.33 164.33"><defs><style>.cls-1{fill:#ef412a;}.cls-2{fill:#fff;}</style></defs><g id="Layer_2" data-name="Layer 2"><g id="UN_LOGOSUZ" data-name="UN LOGOSUZ"><g id="AMAC_05" data-name="AMAC 05"><rect id="arkaplan" class="cls-1" width="164.33" height="164.33"></rect><g id="simge"><path class="cls-2" d="M120.78,63.47H100.26a.26.26,0,0,0-.26.26v6.82a.26.26,0,0,0,.26.26h8.17l-9.07,9.08a26.86,26.86,0,1,0-20,47.77v7.86h-8.1a.26.26,0,0,0-.26.26v7.31a.26.26,0,0,0,.26.26h8.1v7.73a.26.26,0,0,0,.26.26h7.3a.26.26,0,0,0,.26-.26v-7.73h8.1a.26.26,0,0,0,.26-.26v-7.31a.26.26,0,0,0-.26-.26h-8.1v-8a26.84,26.84,0,0,0,17.61-42l8.94-8.95v7.63a.26.26,0,0,0,.26.26h6.82a.26.26,0,0,0,.27-.26V63.73a.27.27,0,0,0-.27-.26m-38,57.33A19.78,19.78,0,1,1,102.58,101,19.8,19.8,0,0,1,82.79,120.8"></path><path class="cls-2" d="M94.88,92.9h-24a.25.25,0,0,0-.26.24v5.8a.25.25,0,0,0,.26.24h24a.24.24,0,0,0,.26-.24v-5.8a.25.25,0,0,0-.26-.24"></path><path class="cls-2" d="M94.88,103.27h-24a.26.26,0,0,0-.26.25v5.8a.25.25,0,0,0,.26.24h24a.25.25,0,0,0,.26-.24v-5.8a.25.25,0,0,0-.26-.25"></path></g><path class="cls-2" d="M46.84,18H45V16.45h5.84V18H49V28.19H46.84Z"></path><path class="cls-2" d="M51.64,24.51V20.1c0-2.37.87-3.78,3.39-3.78s3.38,1.41,3.38,3.78v4.41c0,2.36-.87,3.84-3.38,3.84S51.64,26.89,51.64,24.51Zm4.59.51V19.61c0-1-.16-1.73-1.2-1.73s-1.22.74-1.22,1.73V25c0,1,.16,1.75,1.22,1.75S56.23,26,56.23,25Z"></path><path class="cls-2" d="M60,16.45h3.45c2.1,0,3,1.22,3,3.33,0,2.31-1.25,3.19-3.15,3.19H62.12v5.22H60Zm3,5c1.17,0,1.47-.45,1.47-1.7S64.27,18,63,18h-.83v3.51Z"></path><path class="cls-2" d="M67.63,16.45h2.13V26.73h2.86v1.46h-5Z"></path><path class="cls-2" d="M73.53,24.39V16.45h2.09v8.19c0,1.12.13,2.12,1.22,2.12s1.23-1,1.23-2.12V16.45h2.07v7.94c0,2.47-.68,4-3.3,4S73.53,26.86,73.53,24.39Z"></path><path class="cls-2" d="M82,16.45h2.22l1.67,8.13,1.72-8.13h2.16L90,28.19h-1.6L88.22,20l-1.67,8.16H85.26L83.57,20l-.16,8.19H81.8Z"></path><path class="cls-2" d="M91.35,24.77l1.84-.36c.06,1.39.39,2.29,1.34,2.29.68,0,1-.47,1-1.1a2.82,2.82,0,0,0-1.29-2.25l-1.48-1.29a3.48,3.48,0,0,1-1.36-2.84,2.72,2.72,0,0,1,3-2.9c2.2,0,2.82,1.48,2.94,3.19l-1.84.32c0-1.1-.2-1.93-1.15-1.93a1,1,0,0,0-1,1.1,2.13,2.13,0,0,0,.95,1.77l1.47,1.29a4.37,4.37,0,0,1,1.75,3.41,2.78,2.78,0,0,1-2.94,2.88C92.45,28.35,91.44,27.1,91.35,24.77Z"></path><path class="cls-2" d="M100.5,16.45h2.29l2.35,11.74h-2l-.46-2.71h-2l-.48,2.71h-2Zm2,7.67-.8-4.93-.8,4.93Z"></path><path class="cls-2" d="M106.32,16.45h2.13V26.73h2.85v1.46h-5Z"></path><path class="cls-2" d="M45.48,43.94V39.75c0-2.41.76-3.93,3.34-3.93,2.41,0,3.18,1.33,3.18,3.38v1H49.94v-1c0-1,0-1.79-1.1-1.79s-1.2.85-1.2,1.92v5.09c0,1.27.26,1.88,1.2,1.88s1.1-.83,1.1-1.87V43.34H52v.94c0,2.08-.7,3.57-3.18,3.57S45.48,46.23,45.48,43.94Z"></path><path class="cls-2" d="M53.55,36h2.12V47.69H53.55Zm.1-3.19h1.92v2H53.65Z"></path><path class="cls-2" d="M57.48,36H59l2.86,6.7V36H63.6V47.69H62.18l-2.87-7v7H57.48Z"></path><path class="cls-2" d="M65.09,44.27l1.84-.36c.06,1.39.4,2.29,1.34,2.29.68,0,1-.47,1-1.1A2.82,2.82,0,0,0,68,42.85l-1.48-1.29a3.48,3.48,0,0,1-1.36-2.84,2.72,2.72,0,0,1,3-2.9c2.2,0,2.82,1.48,2.94,3.19l-1.84.32c0-1.1-.2-1.93-1.15-1.93a1,1,0,0,0-1,1.1,2.12,2.12,0,0,0,1,1.77l1.46,1.29A4.34,4.34,0,0,1,71.28,45a2.78,2.78,0,0,1-2.94,2.88C66.19,47.85,65.18,46.6,65.09,44.27Z"></path><path class="cls-2" d="M72.6,36h2.12V47.69H72.6Zm.11-3.19h1.91v2H72.71Z"></path><path class="cls-2" d="M78.17,43.21,75.79,36h2l1.45,4.65L80.61,36h2l-2.34,7.26v4.48h-2Z"></path><path class="cls-2" d="M83.59,36h4.93v1.51H85.73v3.37h2.2v1.5h-2.2v3.9h2.82v1.46h-5Z"></path><path class="cls-2" d="M91,37.53H89.11V36H95v1.58H93.12V47.69H91Z"></path><path class="cls-2" d="M45.66,55.45h4.93V57h-2.8v3.37H50v1.5H47.79v3.9h2.83v1.46h-5Z"></path><path class="cls-2" d="M55,67.35v.73c1.07,0,1.79.47,1.79,1.37s-.91,1.47-2,1.47a3.75,3.75,0,0,1-1-.16v-.92a2.41,2.41,0,0,0,.78.12c.51,0,.89-.15.89-.54s-.6-.71-1.28-.78V67.31c-1.7-.25-2.51-1.47-2.58-3.54l1.84-.36c.06,1.39.39,2.29,1.33,2.29.69,0,1-.47,1-1.1a2.85,2.85,0,0,0-1.29-2.25L53,61.06a3.48,3.48,0,0,1-1.37-2.84,2.72,2.72,0,0,1,3-2.9c2.21,0,2.83,1.48,3,3.19l-1.84.32c0-1.1-.21-1.93-1.15-1.93a1,1,0,0,0-1,1.1,2.14,2.14,0,0,0,1,1.77L56,61.06a4.37,4.37,0,0,1,1.75,3.41A2.77,2.77,0,0,1,55,67.35Z"></path><path class="cls-2" d="M59.09,55.45h2.12V67.19H59.09Zm.1-3.19h1.92v2H59.19Z"></path><path class="cls-2" d="M64.19,57H62.32V55.45h5.85V57H66.34V67.19H64.19Z"></path><path class="cls-2" d="M69.24,55.45h2.13V65.73h2.86v1.46h-5Z"></path><path class="cls-2" d="M75.4,55.45h2.12V67.19H75.4Zm.1-3.19h1.92v2H75.5Z"></path><path class="cls-2" d="M79.14,63.32V59.38c0-2.52.77-4.06,3.35-4.06,2.41,0,3.25,1.25,3.25,3.42v.61h-2v-.67c0-1.13-.11-1.8-1.17-1.8s-1.22.92-1.22,2v4.91c0,1.22.23,2,1.28,2s1.29-.81,1.29-2.09v-1.1H82.61V61.23H85.8v6H84.4l-.14-1.14a2,2,0,0,1-2,1.3C80,67.35,79.14,65.8,79.14,63.32Zm1.28-10.91h1.11c0,.71.28,1.07,1,1.07s1-.39,1-1.07h1.13a2.1,2.1,0,1,1-4.19,0Z"></path><path class="cls-2" d="M87.49,55.45h2.12V67.19H87.49Zm.11-3.19h1.91v2H87.6Z"></path><path class="cls-2" d="M15.18,38.34h6.28c0,3.63.43,5.11,2.42,5s2.06-2.46,2.06-6.59c0-3.08-.35-5.42-2.45-5.42-1.33,0-2.15.9-2.5,2.88H15.38L16,16H30.7v5.46H21.19L20.84,28c.5-.7,2.14-1.32,3.82-1.48,4.83-.5,7.41,3.32,7.41,10.1s-1.21,11.59-8.62,11.59C16.51,48.17,15.18,44.23,15.18,38.34Z"></path></g></g></g></svg> 