<?xml version="1.0" encoding="UTF-8"?> <svg xmlns="http://www.w3.org/2000/svg" viewBox="0 0 164.33 164.33"><defs><style>.cls-1{fill:#1a3668;}.cls-2{fill:#fff;}</style></defs><g id="Layer_2" data-name="Layer 2"><g id="UN_LOGOSUZ" data-name="UN LOGOSUZ"><g id="AMAC_17" data-name="AMAC 17"><rect id="arkaplan" class="cls-1" width="164.33" height="164.33"></rect><path id="simge" class="cls-2" d="M118,103A21.53,21.53,0,0,0,97.3,81.54a21.5,21.5,0,0,0-40.55,0A21.49,21.49,0,0,0,44.34,120a21.49,21.49,0,0,0,32.79,23.7,21.49,21.49,0,0,0,33.43-17.88,21.69,21.69,0,0,0-.81-5.85A21.48,21.48,0,0,0,118,103M94.2,88.7a17.19,17.19,0,0,1-14.64,17,16.4,16.4,0,0,1-.23-2.64A17.19,17.19,0,0,1,94,86.06a16.4,16.4,0,0,1,.23,2.64M77.1,138.1A17.11,17.11,0,0,1,77,113.64a17.11,17.11,0,0,1,.15,24.46m-17-52a17.19,17.19,0,0,1,14.64,17,16.4,16.4,0,0,1-.23,2.64,17.19,17.19,0,0,1-14.64-17,16.4,16.4,0,0,1,.23-2.64m12.8,24.65a17.09,17.09,0,0,1-23.22,7.55,17.09,17.09,0,0,1,23.22-7.55m8.23-.12a17.12,17.12,0,0,1,23.34,7.65,17.12,17.12,0,0,1-23.34-7.65M77,71.53A17.21,17.21,0,0,1,92.77,81.86,21.58,21.58,0,0,0,77,93.94,21.55,21.55,0,0,0,61.28,81.86,17.21,17.21,0,0,1,77,71.53M40.37,103A17.19,17.19,0,0,1,55.7,86a22.51,22.51,0,0,0-.18,2.74,21.48,21.48,0,0,0,7,15.89,21.55,21.55,0,0,0-16.49,11.17A17.12,17.12,0,0,1,40.37,103M47.82,126a16.74,16.74,0,0,1,.38-3.56,21.47,21.47,0,0,0,19.73-.54,21.43,21.43,0,0,0,5.7,18.91A17.13,17.13,0,0,1,47.82,126m58.41-.15A17.19,17.19,0,0,1,89.06,143a17,17,0,0,1-8.47-2.25,21.31,21.31,0,0,0,5.5-18.89,21.43,21.43,0,0,0,19.79.54,16.91,16.91,0,0,1,.35,3.43M91.64,104.46A21.47,21.47,0,0,0,98.53,88.7,22.51,22.51,0,0,0,98.35,86,17.14,17.14,0,0,1,108,115.72a21.55,21.55,0,0,0-16.4-11.26"></path><path class="cls-2" d="M54.58,17.78h2.29l2.35,11.74h-2l-.46-2.71H54.72l-.47,2.71h-2Zm2,7.67-.8-4.93-.8,4.93Z"></path><path class="cls-2" d="M60.57,17.78h2.22l1.66,8.13,1.73-8.13h2.16l.22,11.74H67l-.17-8.16-1.67,8.16H63.83l-1.69-8.19L62,29.52h-1.6Z"></path><path class="cls-2" d="M72.05,17.78h2.29l2.35,11.74h-2l-.47-2.71h-2l-.48,2.71h-2Zm2,7.67-.8-4.93-.8,4.93Z"></path><path class="cls-2" d="M82.07,22V21c0-1,0-1.78-1.1-1.78s-1.2.84-1.2,1.91v5.09c0,1.27.26,1.88,1.2,1.88s1.1-.82,1.1-1.87V25.17h2.06v.95c0,2-.64,3.45-2.88,3.56v.73c1.07,0,1.79.48,1.79,1.37s-.91,1.47-2,1.47a3.75,3.75,0,0,1-1-.16v-.91a2.67,2.67,0,0,0,.78.11c.51,0,.88-.14.88-.53S81.1,31,80.42,31V29.65c-2.15-.21-2.81-1.77-2.81-3.88V21.58c0-2.41.77-3.93,3.35-3.93,2.4,0,3.17,1.33,3.17,3.38v1Z"></path><path class="cls-2" d="M85.63,17.78h2.13V28.06h2.85v1.46h-5Z"></path><path class="cls-2" d="M93.48,17.78h2.29l2.35,11.74h-2l-.47-2.71h-2l-.48,2.71h-2Zm2,7.67-.8-4.93-.79,4.93Z"></path><path class="cls-2" d="M99.3,17.78h2.83c2.34,0,3.68.75,3.68,3.12,0,1.4-.35,2.39-1.45,2.84L106,29.52h-2.15l-1.41-5.38h-1v5.38H99.3Zm2.81,5c1.23,0,1.68-.54,1.68-1.8s-.33-1.76-1.56-1.76h-.8v3.56Z"></path><path class="cls-2" d="M111,17.78h2.12V29.52H111Zm.11-3.19H113v2h-1.91Z"></path><path class="cls-2" d="M119.22,22V21c0-1,0-1.78-1.1-1.78s-1.21.84-1.21,1.91v5.09c0,1.27.27,1.88,1.21,1.88s1.1-.82,1.1-1.87V25.17h2.06v.95c0,2-.64,3.45-2.89,3.56v.73c1.08,0,1.8.48,1.8,1.37s-.91,1.47-2,1.47a3.7,3.7,0,0,1-1-.16v-.91a2.62,2.62,0,0,0,.78.11c.51,0,.88-.14.88-.53s-.59-.72-1.27-.79V29.65c-2.15-.21-2.81-1.77-2.81-3.88V21.58c0-2.41.76-3.93,3.34-3.93,2.41,0,3.18,1.33,3.18,3.38v1Z"></path><path class="cls-2" d="M122.83,17.78H125V29.52h-2.12Zm.1-3.19h1.92v2h-1.92Z"></path><path class="cls-2" d="M126.76,17.78h1.49l2.86,6.7v-6.7h1.77V29.52h-1.42l-2.87-7v7h-1.83Z"></path><path class="cls-2" d="M52.64,45.34V40.93c0-2.37.87-3.78,3.39-3.78s3.38,1.41,3.38,3.78v4.41c0,2.36-.87,3.84-3.38,3.84S52.64,47.72,52.64,45.34Zm4.59.51V40.44c0-1-.16-1.72-1.2-1.72s-1.22.74-1.22,1.72v5.41c0,1,.16,1.75,1.22,1.75S57.23,46.82,57.23,45.85Z"></path><path class="cls-2" d="M61,37.28h2.83c2.34,0,3.68.75,3.68,3.12,0,1.4-.35,2.39-1.45,2.84L67.69,49H65.54l-1.4-5.38h-1V49H61Zm2.81,5c1.23,0,1.68-.54,1.68-1.8s-.33-1.76-1.56-1.76h-.8v3.56Z"></path><path class="cls-2" d="M70.24,38.86H68.37V37.28h5.84v1.58H72.39V49H70.24Z"></path><path class="cls-2" d="M76.75,37.28H79L81.39,49h-2l-.46-2.71h-2L76.42,49h-2Zm2,7.67L77.91,40,77.11,45Z"></path><path class="cls-2" d="M82.56,37.28H84.7v5.16L87,37.28h2l-2.24,5.23L89.31,49H87.18l-2-5.33-.52.88V49H82.56Z"></path><path class="cls-2" d="M90.28,37.28h2.13V47.56h2.86V49h-5Z"></path><path class="cls-2" d="M96.44,37.28h2.12V49H96.44Z"></path><path class="cls-2" d="M100.37,37.28h2.13v5.16l2.34-5.16h2l-2.25,5.23L107.11,49H105l-2-5.33-.52.88V49h-2.13Z"></path><path class="cls-2" d="M108.08,37.28h2.14V47.56h2.85V49h-5Z"></path><path class="cls-2" d="M115.94,37.28h2.29L120.58,49h-2l-.47-2.71h-2L115.61,49h-2Zm2,7.67L117.1,40,116.31,45Z"></path><path class="cls-2" d="M121.76,37.28h2.82c2.35,0,3.69.75,3.69,3.12,0,1.4-.35,2.39-1.45,2.84L128.46,49h-2.15l-1.41-5.38h-1V49h-2.13Zm2.81,5c1.23,0,1.68-.54,1.68-1.8s-.33-1.76-1.56-1.76h-.8v3.56Z"></path><path class="cls-2" d="M12.83,23.87c-1.13.62-3.12,1.29-4.33,1.91V20.94c1.13-.58,4.68-2.41,5.73-3.51h5.11V49H12.83Z"></path><path class="cls-2" d="M32.21,22.39H23.59v-5h15v4.49L31.7,49H25.35Z"></path></g></g></g></svg> 