<?xml version="1.0" encoding="UTF-8"?> <svg xmlns="http://www.w3.org/2000/svg" viewBox="0 0 164.33 164.33"><defs><style>.cls-1{fill:#f36e24;}.cls-2{fill:#fff;}</style></defs><g id="Layer_2" data-name="Layer 2"><g id="UN_LOGOSUZ" data-name="UN LOGOSUZ"><g id="AMAC_09" data-name="AMAC 09"><rect id="arkaplan" class="cls-1" width="164.33" height="164.33"></rect><path id="simge" class="cls-2" d="M122.26,108.23,102.64,96.91V74.25a1.35,1.35,0,0,0-.67-1.16L81.68,61.38a1.34,1.34,0,0,0-1.34,0L60.05,73.09a1.35,1.35,0,0,0-.67,1.16V96.91L39.76,108.23a1.33,1.33,0,0,0-.67,1.16v23.44a1.34,1.34,0,0,0,.67,1.16L60.05,145.7a1.34,1.34,0,0,0,1.34,0L81,134.37l19.62,11.33a1.34,1.34,0,0,0,1.34,0L122.26,134a1.34,1.34,0,0,0,.67-1.16V109.39A1.33,1.33,0,0,0,122.26,108.23ZM79.67,130.51l-16.27-9.4,16.27-9.4Zm19-32.83-16.27,9.39V88.28Zm-19,9.39L63.4,97.68l16.27-9.4Zm4,2.32L101.3,99.23l17.62,10.16L101.3,119.56Zm16.27-14L83.69,86,100,76.57ZM78.33,86l-16.27,9.4V76.57ZM59.38,142.22,41.77,132.05V111.71l17.61,10.17Zm2.68,0V123.43l16.27,9.4Zm58.2-10.17-17.62,10.17V121.88l17.62-10.17Z"></path><path class="cls-2" d="M35.37,23.16l1.84-.36c.06,1.39.39,2.29,1.33,2.29.68,0,1-.47,1-1.1a2.82,2.82,0,0,0-1.29-2.25l-1.47-1.29a3.48,3.48,0,0,1-1.37-2.84,2.72,2.72,0,0,1,3-2.9c2.21,0,2.83,1.48,3,3.19l-1.85.32c0-1.11-.2-1.93-1.14-1.93a1,1,0,0,0-1,1.1,2.14,2.14,0,0,0,1,1.77l1.46,1.29a4.33,4.33,0,0,1,1.76,3.41,2.78,2.78,0,0,1-2.94,2.88C36.47,26.74,35.46,25.49,35.37,23.16Z"></path><path class="cls-2" d="M44.52,14.84h2.29l2.35,11.74h-2l-.46-2.71H44.66l-.48,2.71h-2Zm1.95,7.67-.79-4.93-.8,4.93Z"></path><path class="cls-2" d="M50.33,14.84h1.5l2.85,6.7v-6.7h1.77V26.58H55l-2.87-7v7H50.33Z"></path><path class="cls-2" d="M60,14.84h2.29l2.35,11.74h-2l-.46-2.71h-2l-.47,2.71h-2Zm2,7.67-.8-4.93-.8,4.93Z"></path><path class="cls-2" d="M67,22.1l-2.37-7.26h2l1.45,4.65,1.36-4.65h1.95L69,22.1v4.48H67Z"></path><path class="cls-2" d="M72.47,14.84h2.12V26.58H72.47Zm.11-3.19h1.91v2H72.58Z"></path><path class="cls-2" d="M76.23,27.83a1.21,1.21,0,0,0,.94-1.25h-1v-2h1.93v1.79a1.89,1.89,0,0,1-1.63,2.13Z"></path><path class="cls-2" d="M84.65,22.1l-2.37-7.26h2l1.45,4.65,1.36-4.65h2L86.7,22.1v4.48h-2Z"></path><path class="cls-2" d="M90.08,14.84H95v1.51H92.21v3.37h2.2v1.5h-2.2v3.9H95v1.46h-5Z"></path><path class="cls-2" d="M96.28,14.84h1.5l2.85,6.7v-6.7h1.77V26.58H101l-2.87-7v7H96.28Z"></path><path class="cls-2" d="M104.24,14.84h2.12V26.58h-2.12Zm.1-3.19h1.92v2h-1.92Z"></path><path class="cls-2" d="M108.17,14.84h2.13V25.12h2.86v1.46h-5Z"></path><path class="cls-2" d="M114.33,14.84h2.12V26.58h-2.12Zm.11-3.19h1.91v2h-1.91Z"></path><path class="cls-2" d="M118.26,14.84h2.13V20l2.34-5.16h2l-2.24,5.23L125,26.58h-2.13l-2-5.33-.53.88v4.45h-2.13Z"></path><path class="cls-2" d="M130.08,19.07v-1c0-1,0-1.79-1.1-1.79s-1.2.84-1.2,1.92v5.09c0,1.27.26,1.88,1.2,1.88s1.1-.83,1.1-1.87V22.23h2.06v.94c0,2-.64,3.45-2.89,3.57v.72c1.08,0,1.8.48,1.8,1.38s-.91,1.47-2,1.47a3.7,3.7,0,0,1-1-.16v-.92a2.32,2.32,0,0,0,.78.12c.51,0,.88-.15.88-.54s-.59-.71-1.27-.78V26.71c-2.15-.22-2.81-1.77-2.81-3.88V18.64c0-2.41.76-3.93,3.34-3.93,2.41,0,3.18,1.33,3.18,3.38v1Z"></path><path class="cls-2" d="M133.69,14.84h2.12V26.58h-2.12Zm.1-3.19h1.92v2h-1.92Z"></path><path class="cls-2" d="M137.62,14.84h2.13V25.12h2.86v1.46h-5Z"></path><path class="cls-2" d="M143.78,14.84h2.12V26.58h-2.12Zm.11-3.19h1.91v2h-1.91Z"></path><path class="cls-2" d="M147.71,14.84h2.13V20l2.34-5.16h2L152,20.07l2.48,6.51h-2.13l-1.95-5.33-.53.88v4.45h-2.13Z"></path><path class="cls-2" d="M35.11,34.34H37l1.55,8.3L40,34.34h1.93L39.57,46.08h-2.1Z"></path><path class="cls-2" d="M43.14,34.34h4.93v1.51h-2.8v3.37h2.21v1.5H45.27v3.9H48.1v1.46h-5Z"></path><path class="cls-2" d="M54.62,34.34h2.29l2.35,11.74h-2l-.47-2.71h-2l-.48,2.71h-2Zm2,7.67-.8-4.93L55,42Z"></path><path class="cls-2" d="M60.44,34.34h2.13V44.62h2.86v1.46h-5Z"></path><path class="cls-2" d="M67.14,35.92H65.27V34.34h5.84v1.58H69.28V46.08H67.14Z"></path><path class="cls-2" d="M73.82,41.6l-2.38-7.26h2L74.89,39l1.37-4.65h1.95L75.87,41.6v4.48H73.82Z"></path><path class="cls-2" d="M80.55,34.34h2.29l2.35,11.74h-2l-.46-2.71h-2l-.48,2.71h-2Zm2,7.67-.8-4.93L80.91,42Z"></path><path class="cls-2" d="M86.37,34.34h3.45c2.1,0,3,1.22,3,3.33,0,2.31-1.25,3.19-3.15,3.19H88.5v5.22H86.37Zm2.95,5c1.18,0,1.48-.45,1.48-1.69s-.16-1.81-1.48-1.81H88.5v3.5Z"></path><path class="cls-2" d="M94.06,34.34h2.12V46.08H94.06Z"></path><path class="cls-2" d="M12.55,37.92v-.5h6.09c0,2.53.19,3.74,2,3.74s2-1.4,2-6.28V32.07a4.61,4.61,0,0,1-3.86,1.76c-5,.12-6.86-4.29-6.86-9.48,0-6.59,2.3-10.76,8.66-10.76,6.2,0,8.7,4,8.7,10V35.39c0,6.16-1.72,10.69-8.7,10.69C14.5,46.08,12.55,43.23,12.55,37.92Zm10.1-10.33V22.44c0-2.14-.31-4.06-2.06-4.06s-2,1.84-2,5.35c0,3.08,0,5.11,2.07,5.11A2.4,2.4,0,0,0,22.65,27.59Z"></path></g></g></g></svg> 