<?xml version="1.0" encoding="UTF-8"?> <svg xmlns="http://www.w3.org/2000/svg" viewBox="0 0 164.33 164.33"><defs><style>.cls-1{fill:#ea1d2d;}.cls-2{fill:#fff;}.cls-3{fill:none;stroke:#fff;stroke-linecap:round;stroke-miterlimit:10;stroke-width:1.94px;}</style></defs><g id="Layer_2" data-name="Layer 2"><g id="UN_LOGOSUZ" data-name="UN LOGOSUZ"><g id="AMAC_01" data-name="AMAC 01"><rect id="arkaplan" class="cls-1" width="164.33" height="164.33"></rect><g id="simge"><path class="cls-2" d="M126.1,77.86a4.57,4.57,0,1,1,4.57,4.57,4.56,4.56,0,0,1-4.57-4.57"></path><path class="cls-2" d="M136,84.19a6.09,6.09,0,0,1,5.53,6.07v12.67a1.77,1.77,0,1,1-3.54,0V92.05c0-.41-.12-1-.86-1-.52,0-.63.55-.64.9V124.6a2.55,2.55,0,0,1-5.1,0V105.81a.7.7,0,0,0-.72-.75h0a.71.71,0,0,0-.74.75V124.6a2.55,2.55,0,0,1-5.09,0V92c0-.35-.13-.9-.64-.9-.75,0-.86.55-.86,1v10.88a1.78,1.78,0,0,1-3.55,0V90.26a6.1,6.1,0,0,1,5.54-6.07l.34,0h10l.34,0"></path><path class="cls-2" d="M98.92,80.26a4.33,4.33,0,1,0-4.33,4.33,4.33,4.33,0,0,0,4.33-4.33"></path><path class="cls-2" d="M85.87,90.06l-3.59,11.72s-.65,2.14,1.18,2.68,2.36-1.56,2.36-1.56l2.9-9.77s.16-.76.72-.59.35,1,.35,1l-5,18.32h4.69v13.12a2.26,2.26,0,0,0,4.51,0V111.82h1.28v13.12a2.26,2.26,0,0,0,4.51,0V111.82h4.7l-5-18.32s-.21-.8.35-1,.73.59.73.59l2.9,9.77s.55,2.1,2.36,1.56,1.18-2.68,1.18-2.68l-3.6-11.72s-1.28-3.38-4.13-3.38H90c-2.85,0-4.14,3.38-4.14,3.38"></path><path class="cls-2" d="M73,80.26a4.33,4.33,0,1,0-4.33,4.33A4.33,4.33,0,0,0,73,80.26"></path><path class="cls-2" d="M60,90.06l-3.6,11.72s-.64,2.14,1.18,2.68,2.37-1.56,2.37-1.56l2.9-9.77s.15-.76.72-.59.35,1,.35,1l-5,18.32h4.7v13.12a2.26,2.26,0,0,0,4.51,0V111.82h1.28v13.12a2.26,2.26,0,0,0,4.51,0V111.82h4.7l-5-18.32s-.21-.8.35-1,.72.59.72.59l2.9,9.77s.55,2.1,2.36,1.56S81,101.78,81,101.78L77.39,90.06s-1.29-3.38-4.13-3.38H64.09c-2.85,0-4.14,3.38-4.14,3.38"></path><path class="cls-2" d="M113.45,104.48a3.6,3.6,0,1,0-3.6-3.6,3.6,3.6,0,0,0,3.6,3.6"></path><path class="cls-2" d="M104.82,115.67a1.25,1.25,0,0,0,.52,1.71,1.2,1.2,0,0,0,1.54-.5l2-6.25s.34-.42.34,0v14.71h0a1.85,1.85,0,0,0,3.7,0v-5.81s-.11-.82.55-.82.56.82.56.82v5.81a1.85,1.85,0,0,0,3.7,0V110.64c0-.43.23-.12.23-.12l1.54,4.28a9.81,9.81,0,0,0,.87,2,1.36,1.36,0,0,0,1.78-.74,1.33,1.33,0,0,0-.14-1.31h0c0-.14-2.29-5.66-2.56-6.43-.81-2.38-2.29-2.36-3.71-2.4s-2.28,0-2.28,0-.91,0-2.79,0-2.47,1-4.54,6.35c-.29.77-1.29,3.25-1.31,3.4Z"></path><path class="cls-2" d="M34.35,77.86a4.57,4.57,0,1,0-4.58,4.57,4.57,4.57,0,0,0,4.58-4.57"></path><path class="cls-2" d="M24.44,84.19a6.1,6.1,0,0,0-5.54,6.07v12.67a1.78,1.78,0,0,0,3.55,0V92.05c0-.41.12-1,.86-1,.52,0,.63.55.65.9V124.6a2.55,2.55,0,0,0,5.09,0V105.81a.7.7,0,0,1,.72-.75h0a.71.71,0,0,1,.74.75V124.6a2.55,2.55,0,0,0,5.09,0V92c0-.35.13-.9.64-.9.75,0,.86.55.86,1v10.88a1.78,1.78,0,0,0,3.55,0V90.26a6.1,6.1,0,0,0-5.54-6.07l-.34,0h-10l-.35,0"></path><line class="cls-3" x1="20.45" y1="104.77" x2="16.39" y2="126.29"></line><path class="cls-2" d="M42.82,102.6A1.34,1.34,0,0,0,41.7,102a1.31,1.31,0,0,0-1.31,1.31,2.4,2.4,0,0,0,.13.58l3.63,6.57a2.32,2.32,0,0,1,.22.86v14.12h0a1.78,1.78,0,0,0,3.55,0v-5.57s-.1-.79.53-.79.54.79.54.79v5.57a1.78,1.78,0,0,0,3.55,0V111.3a2.32,2.32,0,0,1,.22-.86l3.36-6.07a5.89,5.89,0,0,0,.41-1.08A1.31,1.31,0,0,0,55.23,102a1.29,1.29,0,0,0-1.11.62h0c-.1.09-1.78,3.08-2.34,3.64a1.44,1.44,0,0,1-1.11.52H46.28a1.43,1.43,0,0,1-1.11-.52c-.56-.56-2.24-3.55-2.34-3.64Z"></path><path class="cls-2" d="M48.46,104.48a3.6,3.6,0,1,0-3.6-3.6,3.59,3.59,0,0,0,3.6,3.6"></path><polygon class="cls-2" points="48.47 109.54 52.54 112.51 54.48 119.63 48.47 119.63 42.46 119.63 44.4 112.51 48.47 109.54"></polygon></g><path class="cls-2" d="M36.22,21.74l-2.37-7.26h2l1.44,4.66,1.37-4.66h2l-2.35,7.26v4.48H36.22Z"></path><path class="cls-2" d="M41.34,22.54v-4.4c0-2.38.87-3.79,3.39-3.79s3.38,1.41,3.38,3.79v4.4c0,2.36-.87,3.84-3.38,3.84S41.34,24.92,41.34,22.54Zm4.6.51V17.64c0-1-.16-1.72-1.21-1.72s-1.21.74-1.21,1.72v5.41c0,1,.16,1.75,1.21,1.75S45.94,24,45.94,23.05Z"></path><path class="cls-2" d="M49.69,14.48h2.13v5.16l2.34-5.16h2L54,19.72l2.48,6.5H54.3l-1.95-5.33-.53.88v4.45H49.69Z"></path><path class="cls-2" d="M57,22.8l1.84-.36c.06,1.39.39,2.29,1.33,2.29.68,0,1-.46,1-1.1a2.82,2.82,0,0,0-1.29-2.25l-1.48-1.29A3.45,3.45,0,0,1,57,17.25a2.72,2.72,0,0,1,3-2.9c2.2,0,2.83,1.48,2.94,3.19l-1.84.32c0-1.1-.2-1.93-1.14-1.93A1,1,0,0,0,59,17a2.13,2.13,0,0,0,1,1.77l1.46,1.29a4.36,4.36,0,0,1,1.76,3.41,2.78,2.78,0,0,1-3,2.88C58.09,26.38,57.07,25.14,57,22.8Z"></path><path class="cls-2" d="M64.35,22.43V14.48h2.09v8.19c0,1.12.13,2.12,1.22,2.12s1.23-1,1.23-2.12V14.48H71v8c0,2.46-.68,3.95-3.3,3.95S64.35,24.89,64.35,22.43Z"></path><path class="cls-2" d="M72.65,14.48h2.13V24.76h2.85v1.46h-5Z"></path><path class="cls-2" d="M78.75,14.48h2.13V24.76h2.86v1.46h-5Z"></path><path class="cls-2" d="M84.65,22.43V14.48h2.09v8.19c0,1.12.13,2.12,1.22,2.12s1.23-1,1.23-2.12V14.48h2.07v8c0,2.46-.68,3.95-3.3,3.95S84.65,24.89,84.65,22.43Z"></path><path class="cls-2" d="M92.76,22.35V18.41c0-2.52.77-4.06,3.35-4.06,2.4,0,3.24,1.25,3.24,3.42v.61h-2v-.67c0-1.13-.12-1.79-1.17-1.79s-1.22.91-1.22,2v4.92c0,1.21.23,2,1.27,2s1.29-.81,1.29-2.08V21.61H96.22V20.27h3.19v5.95H98l-.15-1.14a2,2,0,0,1-2,1.3C93.57,26.38,92.76,24.83,92.76,22.35ZM94,11.44h1.12c0,.71.27,1.07,1,1.07s1-.39,1-1.07h1.13a2.1,2.1,0,1,1-4.19,0Z"></path><path class="cls-2" d="M102.81,14.48h2.29l2.34,11.74h-2L105,23.51h-2l-.48,2.71h-2Zm2,7.67L104,17.22l-.8,4.93Z"></path><path class="cls-2" d="M34.29,42.3l1.85-.36c0,1.39.39,2.29,1.33,2.29.68,0,1-.46,1-1.1a2.82,2.82,0,0,0-1.29-2.25l-1.48-1.29a3.45,3.45,0,0,1-1.36-2.84,2.72,2.72,0,0,1,3-2.9c2.2,0,2.83,1.48,2.94,3.19l-1.84.32c0-1.1-.2-1.93-1.15-1.93a1,1,0,0,0-1,1.1,2.11,2.11,0,0,0,1,1.77l1.46,1.29A4.36,4.36,0,0,1,40.48,43a2.77,2.77,0,0,1-2.94,2.88C35.4,45.88,34.38,44.64,34.29,42.3Z"></path><path class="cls-2" d="M41.56,42v-4.4c0-2.38.87-3.79,3.39-3.79s3.38,1.41,3.38,3.79V42c0,2.36-.87,3.84-3.38,3.84S41.56,44.42,41.56,42Zm4.59.51V37.14c0-1-.16-1.72-1.2-1.72s-1.22.74-1.22,1.72v5.41c0,1,.16,1.75,1.22,1.75S46.15,43.52,46.15,42.55Z"></path><path class="cls-2" d="M49.91,34H51.4l2.86,6.7V34H56V45.72H54.61l-2.87-7v7H49.91Z"></path><path class="cls-2" d="M14.36,20.77c-1.13.63-3.12,1.29-4.33,1.91V17.85c1.13-.59,4.68-2.42,5.73-3.51h5.11V45.93H14.36Z"></path></g></g></g></svg> 