<?xml version="1.0" encoding="UTF-8"?> <svg xmlns="http://www.w3.org/2000/svg" viewBox="0 0 164.33 164.33"><defs><style>.cls-1{fill:#00add8;}.cls-2{fill:#fff;}</style></defs><g id="Layer_2" data-name="Layer 2"><g id="UN_LOGOSUZ" data-name="UN LOGOSUZ"><g id="AMAC_06" data-name="AMAC 06"><rect id="arkaplan" class="cls-1" width="164.33" height="164.33"></rect><path id="simge" class="cls-2" d="M113.85,67.89a.73.73,0,0,0-.54-.23H53.41a.67.67,0,0,0-.68.8l10.06,60.86a.7.7,0,0,0,.69.58H75.83l.84,9.91H71.48l12.09,12.09,12.12-12.12h-5.2l.85-9.9H103.9a.69.69,0,0,0,.69-.59L114,68.46A.73.73,0,0,0,113.85,67.89ZM90.7,116.61a9.62,9.62,0,0,1-7.15,2.5,9.62,9.62,0,0,1-7.15-2.5c-4.49-4.48-2.89-10.06-1.32-12.94,1-1.8,7.85-12.16,8.45-13v-.07l0,0,0,0v.07c.57.88,7.48,11.24,8.44,13C93.59,106.55,95.18,112.13,90.7,116.61Zm19-35.91A7.42,7.42,0,0,0,104,81c-7.43,3-12.49,4.09-20.3,1.65-4.92-1.54-9.53-4.77-15-2.81-3.62,1.3-7,2.54-11.07,2.51L55.34,70.3H111.4Z"></path><path class="cls-2" d="M44.67,18.05H42.8V16.47h5.84v1.58H46.82V28.21H44.67Z"></path><path class="cls-2" d="M49.72,16.47h4.93V18h-2.8v3.37h2.2v1.5h-2.2v3.9h2.83v1.46h-5Z"></path><path class="cls-2" d="M56.1,16.47h2.22L60,24.6l1.73-8.13h2.16l.22,11.74h-1.6l-.17-8.16-1.67,8.16H59.36L57.66,20l-.15,8.19H55.9Z"></path><path class="cls-2" d="M65.89,16.47H68V28.21H65.89Zm.1-3.19H67.9v2H66Z"></path><path class="cls-2" d="M69.42,26.83,72.57,18h-3V16.47h5.15v1.1l-3.28,9.18h3.29v1.46H69.42Z"></path><path class="cls-2" d="M79.21,24.79l1.84-.36c.06,1.39.39,2.29,1.34,2.29.68,0,1-.47,1-1.1a2.82,2.82,0,0,0-1.29-2.25l-1.48-1.29a3.48,3.48,0,0,1-1.36-2.84,2.72,2.72,0,0,1,3-2.9c2.2,0,2.82,1.48,2.94,3.19l-1.84.32c0-1.1-.21-1.93-1.15-1.93a1,1,0,0,0-1,1.1,2.13,2.13,0,0,0,1,1.77l1.47,1.29a4.39,4.39,0,0,1,1.75,3.41,2.78,2.78,0,0,1-2.94,2.88C80.31,28.37,79.3,27.12,79.21,24.79Z"></path><path class="cls-2" d="M86.58,24.41V16.47h2.08v8.19c0,1.12.14,2.12,1.22,2.12s1.23-1,1.23-2.12V16.47h2.08v7.94c0,2.47-.68,4-3.31,4S86.58,26.88,86.58,24.41Z"></path><path class="cls-2" d="M97.84,16.47h1.89l1.55,8.31,1.46-8.31h1.93l-2.36,11.74h-2.1Z"></path><path class="cls-2" d="M105.88,16.47h4.93V18H108v3.37h2.2v1.5H108v3.9h2.82v1.46h-5Z"></path><path class="cls-2" d="M43.21,44.29l1.84-.36c.06,1.39.39,2.29,1.33,2.29.68,0,1-.47,1-1.1a2.82,2.82,0,0,0-1.29-2.25l-1.47-1.29a3.48,3.48,0,0,1-1.37-2.84,2.72,2.72,0,0,1,3-2.9c2.21,0,2.83,1.48,3,3.19l-1.85.32c0-1.1-.2-1.93-1.14-1.93a1,1,0,0,0-1,1.1,2.14,2.14,0,0,0,1,1.77l1.46,1.29A4.36,4.36,0,0,1,49.4,45a2.78,2.78,0,0,1-2.94,2.88C44.31,47.87,43.3,46.62,43.21,44.29Z"></path><path class="cls-2" d="M52.36,36h2.29L57,47.71H55L54.55,45h-2L52,47.71H50Zm2,7.67-.79-4.93-.8,4.93Z"></path><path class="cls-2" d="M58.17,36h1.5l2.85,6.7V36h1.77V47.71H62.87L60,40.7v7H58.17Z"></path><path class="cls-2" d="M66.13,36h2.12V47.71H66.13Zm.1-3.19h1.92v2H66.23Z"></path><path class="cls-2" d="M71.24,37.55H69.37V36h5.84v1.58H73.38V47.71H71.24Z"></path><path class="cls-2" d="M77.75,36H80l2.35,11.74h-2L79.94,45h-2l-.48,2.71h-2Zm2,7.67-.79-4.93-.8,4.93Z"></path><path class="cls-2" d="M83.21,44.29l1.85-.36c0,1.39.39,2.29,1.33,2.29.68,0,1-.47,1-1.1a2.82,2.82,0,0,0-1.29-2.25l-1.48-1.29a3.48,3.48,0,0,1-1.36-2.84,2.72,2.72,0,0,1,3-2.9c2.2,0,2.82,1.48,2.94,3.19l-1.84.32c0-1.1-.2-1.93-1.15-1.93a1,1,0,0,0-1,1.1,2.13,2.13,0,0,0,1,1.77l1.47,1.29A4.36,4.36,0,0,1,89.4,45a2.78,2.78,0,0,1-2.94,2.88C84.31,47.87,83.3,46.62,83.21,44.29Z"></path><path class="cls-2" d="M92.25,43.23,89.87,36h2l1.45,4.65L94.68,36h2l-2.35,7.26v4.48h-2Z"></path><path class="cls-2" d="M97.37,44V39.62c0-2.37.86-3.78,3.39-3.78s3.38,1.41,3.38,3.78V44c0,2.36-.87,3.84-3.38,3.84S97.37,46.41,97.37,44Zm4.59.51V39.13c0-1-.16-1.73-1.2-1.73s-1.22.74-1.22,1.73v5.41c0,1,.16,1.75,1.22,1.75S102,45.51,102,44.54Z"></path><path class="cls-2" d="M105.72,36h1.49l2.86,6.7V36h1.76V47.71h-1.42l-2.87-7v7h-1.82Z"></path><path class="cls-2" d="M13.55,37.55V26.12c0-6.16,1.68-10.68,8.7-10.68,6,0,8,2.84,8,8.11,0,.19,0,.39,0,.54H24.2c0-2.53-.16-3.74-1.91-3.74s-2.11,1.37-2.11,6.28v2.81c.62-1.09,2.14-1.68,3.9-1.76,5-.11,6.82,3.94,6.82,9.09,0,6.63-2,11.15-8.61,11.15C16.08,47.92,13.55,43.56,13.55,37.55Zm10.8.23c0-3.08,0-5.11-2.06-5.11a2.62,2.62,0,0,0-2.11,1.25v5.15c0,2.15.43,4.06,2.18,4.06S24.35,41.33,24.35,37.78Z"></path></g></g></g></svg> 