<?xml version="1.0" encoding="UTF-8"?> <svg xmlns="http://www.w3.org/2000/svg" viewBox="0 0 164.33 164.33"><defs><style>.cls-1{fill:#2d9a47;}.cls-2{fill:#fff;}</style></defs><g id="Layer_2" data-name="Layer 2"><g id="UN_LOGOLU" data-name="UN LOGOLU"><g id="AMAC_03" data-name="AMAC 03"><rect id="arkaplan" class="cls-1" width="164.33" height="164.33"></rect><g id="simge"><path class="cls-2" d="M135.72,102c0-4.65-3-8.41-7.5-8.41-2.26,0-5,2.47-6.46,4-1.48-1.52-4-4-6.28-4-4.51,0-7.68,3.77-7.68,8.42a8.49,8.49,0,0,0,2.4,5.94h0l11.57,11.6L133.33,108h0A8.52,8.52,0,0,0,135.72,102Z"></path><path class="cls-2" d="M86.45,138.47h-.12a1.9,1.9,0,0,1-1.76-1.58L78.7,102.66l-8.91,16.51a1.9,1.9,0,0,1-3.55-.63L62.46,92.12l-6.92,15.53a1.88,1.88,0,0,1-1.73,1.13H26.93a1.9,1.9,0,1,1,0-3.8H52.57l9.1-20.43a1.9,1.9,0,0,1,3.62.5l3.89,27.24L78,96a1.9,1.9,0,0,1,3.54.58L87,128.3l19.84-65.9a1.91,1.91,0,0,1,1.67-1.35,1.89,1.89,0,0,1,1.86,1.07l10.44,21.64a1.9,1.9,0,1,1-3.42,1.65L109,68.17l-20.75,69A1.91,1.91,0,0,1,86.45,138.47Z"></path></g><path class="cls-2" d="M41.61,22.63l1.85-.36c0,1.39.39,2.29,1.33,2.29.68,0,1-.46,1-1.1a2.82,2.82,0,0,0-1.29-2.25L43,19.92a3.46,3.46,0,0,1-1.36-2.84,2.72,2.72,0,0,1,3-2.9c2.2,0,2.82,1.48,2.94,3.19l-1.84.32c0-1.1-.2-1.93-1.15-1.93a1,1,0,0,0-1,1.1,2.11,2.11,0,0,0,1,1.77l1.46,1.29a4.36,4.36,0,0,1,1.75,3.41,2.78,2.78,0,0,1-2.94,2.88C42.72,26.21,41.7,25,41.61,22.63Z"></path><path class="cls-2" d="M50.76,14.31h2.29L55.4,26.05h-2L53,23.34h-2l-.48,2.71h-2Zm2,7.67-.8-4.93L51.12,22Z"></path><path class="cls-2" d="M56.27,22.18V18.24c0-2.52.77-4.06,3.35-4.06,2.41,0,3.25,1.25,3.25,3.42v.61h-2v-.67c0-1.13-.11-1.79-1.17-1.79s-1.22.91-1.22,2v4.92c0,1.21.23,2,1.28,2S61,23.82,61,22.55V21.44H59.74V20.1h3.19v5.95H61.54l-.15-1.14a2,2,0,0,1-2,1.3C57.09,26.21,56.27,24.66,56.27,22.18Zm1.28-10.91h1.11c0,.71.28,1.07,1,1.07s1-.39,1-1.07h1.13a2.1,2.1,0,1,1-4.19,0Z"></path><path class="cls-2" d="M64.57,14.31H66.7V24.59h2.85v1.46h-5Z"></path><path class="cls-2" d="M70.73,14.31h2.12V26.05H70.73Z"></path><path class="cls-2" d="M74.66,14.31h2.13v5.16l2.33-5.16h2l-2.25,5.23,2.48,6.51H79.27l-2-5.33-.52.88v4.45H74.66Z"></path><path class="cls-2" d="M85.35,14.31h1.88l1.55,8.31,1.46-8.31h1.93L89.81,26.05h-2.1Z"></path><path class="cls-2" d="M93.38,14.31h4.93v1.51h-2.8V19.2h2.2v1.49h-2.2v3.9h2.83v1.46h-5Z"></path><path class="cls-2" d="M103.11,14.31h2.13v5.16l2.33-5.16h2.05l-2.25,5.23,2.48,6.51h-2.13l-2-5.33-.52.88v4.45h-2.13Z"></path><path class="cls-2" d="M112.58,14.31h2.29l2.34,11.74h-2l-.47-2.71h-2l-.48,2.71h-2Zm2,7.67-.8-4.93L112.94,22Z"></path><path class="cls-2" d="M118.39,14.31h2.13V24.59h2.86v1.46h-5Z"></path><path class="cls-2" d="M124.55,14.31h2.12V26.05h-2.12Zm.1-3.19h1.92v2h-1.92Z"></path><path class="cls-2" d="M129.66,15.89h-1.87V14.31h5.84v1.58H131.8V26.05h-2.14Z"></path><path class="cls-2" d="M134.7,14.31h4.93v1.51h-2.8V19.2H139v1.49h-2.21v3.9h2.83v1.46h-5Z"></path><path class="cls-2" d="M140.91,14.31H143V24.59h2.85v1.46h-5Z"></path><path class="cls-2" d="M147.07,14.31h2.12V26.05h-2.12Zm.1-3.19h1.92v2h-1.92Z"></path><path class="cls-2" d="M43.54,41.07l-2.38-7.26h2l1.44,4.66L46,33.81h2l-2.34,7.26v4.48H43.54Z"></path><path class="cls-2" d="M50.27,33.81h2.29l2.35,11.74h-2l-.46-2.71h-2l-.48,2.71h-2Zm2,7.67-.8-4.93-.8,4.93Z"></path><path class="cls-2" d="M59.14,45.71v.73c1.08,0,1.8.48,1.8,1.37s-.91,1.47-2,1.47a3.7,3.7,0,0,1-1-.16v-.91a2.62,2.62,0,0,0,.78.11c.51,0,.88-.14.88-.53S59,47.08,58.32,47V45.67c-1.7-.25-2.51-1.46-2.58-3.54l1.84-.36c.06,1.39.39,2.29,1.33,2.29.68,0,1-.46,1-1.1a2.82,2.82,0,0,0-1.29-2.25l-1.48-1.29a3.46,3.46,0,0,1-1.36-2.84,2.72,2.72,0,0,1,3-2.9c2.2,0,2.83,1.48,2.94,3.19l-1.84.32c0-1.1-.2-1.93-1.14-1.93a1,1,0,0,0-1,1.1,2.13,2.13,0,0,0,1,1.77l1.46,1.29a4.36,4.36,0,0,1,1.76,3.41A2.77,2.77,0,0,1,59.14,45.71Z"></path><path class="cls-2" d="M64.89,33.81h2.29l2.34,11.74h-2l-.47-2.71H65l-.48,2.71h-2Zm2,7.67-.79-4.93-.8,4.93Z"></path><path class="cls-2" d="M70.87,33.81h2.22l1.67,8.13,1.72-8.13h2.16l.22,11.74H77.27l-.18-8.16-1.66,8.16H74.14l-1.7-8.19-.16,8.19H70.67Z"></path><path class="cls-2" d="M12.05,35.83V34.7h6.52v1.13c0,3.16.5,4.41,2.3,4.41S23,38.88,23,36c0-3.12-.62-4.76-3.31-4.84H18.45V26.71H19.5c2.77,0,3.47-1.45,3.47-4.64,0-2.46-.54-3.79-2.3-3.79s-2.1,1.6-2.1,3.9v1.64H12.05V21.91c0-5.69,3.24-8.81,8.62-8.81s8.74,2.92,8.74,8.54c0,3.7-1.72,6.35-3.86,6.94,2.18.82,3.86,2.77,3.86,7.29,0,5.77-2.34,9.87-8.66,9.87C14.12,45.74,12.05,41.72,12.05,35.83Z"></path></g></g></g></svg> 