<?xml version="1.0" encoding="UTF-8"?> <svg xmlns="http://www.w3.org/2000/svg" viewBox="0 0 164.33 164.33"><defs><style>.cls-1{fill:#00558a;}.cls-2{fill:#fff;}</style></defs><g id="Layer_2" data-name="Layer 2"><g id="UN_LOGOSUZ" data-name="UN LOGOSUZ"><g id="AMAC_16" data-name="AMAC 16"><rect id="arkaplan" class="cls-1" width="164.33" height="164.33"></rect><g id="simge"><path class="cls-2" d="M103.77,74.66s-1.6,2.12-1.14,4.2,2.84,3.31,2.84,3.31S107.07,80,106.6,78s-2.83-3.3-2.83-3.3"></path><path class="cls-2" d="M101.16,86.81s1.6-2.13,1.13-4.2-2.83-3.31-2.83-3.31-1.6,2.13-1.14,4.2,2.84,3.31,2.84,3.31"></path><path class="cls-2" d="M107.75,84.53a5.27,5.27,0,0,0,3.62,1.54,5.5,5.5,0,0,0,3.35-2.16,5.27,5.27,0,0,0-3.62-1.53,5.5,5.5,0,0,0-3.35,2.15"></path><path class="cls-2" d="M110.52,75.41c-1.57,1.59-1.35,4.41-1.35,4.41s2.77.24,4.34-1.35,1.34-4.41,1.34-4.41-2.76-.23-4.33,1.35"></path><path class="cls-2" d="M107.06,90.86a5.51,5.51,0,0,0,3.73-1.42,5.29,5.29,0,0,0-3.23-2.25,5.55,5.55,0,0,0-3.73,1.43,5.29,5.29,0,0,0,3.23,2.24"></path><path class="cls-2" d="M108.77,121.73H94.42a2,2,0,0,0,0,4.07h14.35a2,2,0,0,0,0-4.07"></path><path class="cls-2" d="M108.77,144.12H94.42a2,2,0,0,0,0,4.06h14.35a2,2,0,0,0,0-4.06"></path><path class="cls-2" d="M44.21,116.8a9.57,9.57,0,0,0-1-.25s.36.11,1,.25"></path><path class="cls-2" d="M108.25,127.21H94.94a1.16,1.16,0,0,0-1.15,1.16v4l-8.69.95-12.68-.29v-7.75a34.37,34.37,0,0,0,5-1c12.22-3.45,14.88-11.05,14.61-18s2-9.88,5.29-11.11a14.32,14.32,0,0,1,2.71-.71,21.64,21.64,0,0,0,1.17,6.2c.29,0,.58,0,.87-.08a20.43,20.43,0,0,1-1.2-6.25,14.83,14.83,0,0,1,2.9-.08,18.46,18.46,0,0,1-2.76-2c.55-3.36,2.55-5.43,4.62-7.55a24.88,24.88,0,0,0,3.24-3.8l-.72-.46a24.47,24.47,0,0,1-3.13,3.66c-2,2.07-4,4.17-4.74,7.52a24.61,24.61,0,0,1-2.09-2.11c-3-3.37-6.89-.89-12.42,4.25s-12.49,5.32-19.28-1.63c-9-9.17-16.78-9.12-22.14-8.6,3.67,1.57,5,5,6.81,13.7,1.94,9.14,6.85,13.28,13.56,13.85-3.11.5-3.92.93-8.92,4.39-3.9,2.69-9.4,1.84-11.63,1.33,4.09,1.28,8.94,5.57,13.27,7.06a31.68,31.68,0,0,0,7.91,1.62v7.42l-24.07-.52v5.18l43.78-1,8.69.95v4a1.16,1.16,0,0,0,1.15,1.15h13.31a1.16,1.16,0,0,0,1.15-1.15v-13.2A1.16,1.16,0,0,0,108.25,127.21Zm-40.77-1.62c1,0,1.89,0,2.85-.08V133L67.48,133Z"></path><path class="cls-2" d="M40.08,136.7a1.86,1.86,0,0,1-1.7,2h-1a1.86,1.86,0,0,1-1.7-2v-3.58a1.85,1.85,0,0,1,1.7-2h1a1.85,1.85,0,0,1,1.7,2Z"></path></g><path class="cls-2" d="M53.58,16.28h2.9c2.06,0,3.43.7,3.43,3,0,1.44-.59,2.24-1.69,2.41,1.37.26,2,1.25,2,2.9,0,2.25-1.1,3.42-3.28,3.42H53.58Zm2.87,4.8c1.28,0,1.61-.57,1.61-1.76s-.61-1.55-1.91-1.55h-.44v3.31Zm.09,5.43c1.3,0,1.66-.61,1.66-1.92s-.46-2-1.74-2h-.75v4Z"></path><path class="cls-2" d="M63.4,16.28h2.29L68,28h-2l-.47-2.71h-2L63.06,28h-2ZM65.35,24,64.55,19,63.76,24Z"></path><path class="cls-2" d="M69.21,16.28H72c2.34,0,3.68.75,3.68,3.12,0,1.4-.35,2.39-1.45,2.84L75.91,28H73.76l-1.4-5.38h-1V28H69.21Zm2.81,5c1.23,0,1.68-.54,1.68-1.8s-.33-1.77-1.56-1.77h-.8v3.57Z"></path><path class="cls-2" d="M77.4,16.28h2.12V28H77.4Z"></path><path class="cls-2" d="M84.45,28.18v.73c1.07,0,1.8.47,1.8,1.37s-.92,1.47-2,1.47a3.81,3.81,0,0,1-1-.16v-.92a2.41,2.41,0,0,0,.78.12c.51,0,.89-.14.89-.54s-.6-.71-1.28-.78V28.14c-1.69-.25-2.51-1.47-2.58-3.54l1.84-.36c.06,1.39.39,2.29,1.34,2.29.68,0,1-.47,1-1.1a2.82,2.82,0,0,0-1.29-2.25l-1.48-1.29a3.48,3.48,0,0,1-1.36-2.84,2.72,2.72,0,0,1,3-2.9c2.2,0,2.82,1.48,2.94,3.19l-1.84.32c0-1.1-.21-1.93-1.15-1.93a1,1,0,0,0-1,1.1,2.13,2.13,0,0,0,1,1.77l1.47,1.29a4.37,4.37,0,0,1,1.75,3.41A2.77,2.77,0,0,1,84.45,28.18Z"></path><path class="cls-2" d="M88.32,29.27A1.21,1.21,0,0,0,89.26,28h-1v-2h1.93v1.79A1.88,1.88,0,0,1,88.52,30Z"></path><path class="cls-2" d="M96.86,16.28h2.29L101.5,28h-2l-.46-2.71H97L96.53,28h-2Zm2,7.67L98,19,97.22,24Z"></path><path class="cls-2" d="M102.67,16.28h2.77c2.86,0,3.73,1.14,3.73,3.65v4.28c0,2.58-.89,3.81-3.64,3.81h-2.86Zm2.8,10.25c1.47,0,1.52-.78,1.52-2.25V19.79c0-1.41-.14-2-1.55-2h-.63v8.73Z"></path><path class="cls-2" d="M112.42,16.28h2.29L117.06,28h-2l-.46-2.71h-2L112.08,28h-2Zm2,7.67L113.58,19l-.8,4.93Z"></path><path class="cls-2" d="M118.23,16.28h2.13V26.56h2.86V28h-5Z"></path><path class="cls-2" d="M124.34,16.28h4.93v1.51h-2.8v3.37h2.2v1.5h-2.2v3.9h2.82V28h-4.95Z"></path><path class="cls-2" d="M131.72,17.86h-1.87V16.28h5.84v1.58h-1.83V28h-2.14Z"></path><path class="cls-2" d="M53,35.78h1.88l1.55,8.31,1.47-8.31h1.93L57.49,47.52h-2.1Z"></path><path class="cls-2" d="M61.06,35.78H66v1.51h-2.8v3.37H65.4v1.5H63.19v3.9H66v1.46h-5Z"></path><path class="cls-2" d="M70.6,43.65V39.71c0-2.52.77-4.06,3.35-4.06,2.41,0,3.25,1.25,3.25,3.42v.61h-2V39c0-1.13-.11-1.8-1.17-1.8s-1.22.92-1.22,2v4.91c0,1.22.23,2,1.28,2s1.29-.81,1.29-2.09v-1.1H74.07V41.56h3.19v6h-1.4l-.14-1.14a2,2,0,0,1-2,1.3C71.41,47.68,70.6,46.13,70.6,43.65Z"></path><path class="cls-2" d="M78.81,43.72V35.78H80.9V44c0,1.12.13,2.12,1.21,2.12s1.24-1,1.24-2.12V35.78h2.07v7.94c0,2.47-.68,4-3.31,4S78.81,46.19,78.81,43.72Zm1-11.3h1.74V34.3H79.84Zm2.84,0h1.74V34.3H82.68Z"></path><path class="cls-2" d="M91.38,40V39c0-1,0-1.79-1.1-1.79s-1.21.85-1.21,1.92v5.09c0,1.27.27,1.88,1.21,1.88s1.1-.83,1.1-1.87V43.17h2.06v.94c0,2-.64,3.46-2.89,3.57v.73c1.08,0,1.8.47,1.8,1.37s-.91,1.47-2,1.47a3.7,3.7,0,0,1-1-.16v-.92a2.32,2.32,0,0,0,.78.12c.51,0,.88-.14.88-.54S90.41,49,89.73,49V47.65c-2.15-.22-2.82-1.77-2.82-3.88V39.58c0-2.41.77-3.93,3.35-3.93,2.41,0,3.18,1.33,3.18,3.38v1Z"></path><path class="cls-2" d="M94.93,35.78h2.13V46.06h2.86v1.46h-5Z"></path><path class="cls-2" d="M100.83,43.72V35.78h2.09V44c0,1.12.13,2.12,1.22,2.12s1.23-1,1.23-2.12V35.78h2.08v7.94c0,2.47-.69,4-3.31,4S100.83,46.19,100.83,43.72Zm1-11.3h1.74V34.3h-1.74Zm2.84,0h1.75V34.3H104.7Z"></path><path class="cls-2" d="M53.58,55.28h2.13v5.16L58,55.28h2.05l-2.25,5.23L60.32,67H58.19l-2-5.33-.52.88V67H53.58Z"></path><path class="cls-2" d="M61.18,63.22V55.28h2.08v8.19c0,1.12.14,2.12,1.22,2.12s1.23-1,1.23-2.12V55.28h2.08v7.94c0,2.47-.68,4-3.31,4S61.18,65.69,61.18,63.22Z"></path><path class="cls-2" d="M69.47,55.28H72.3c2.35,0,3.68.75,3.68,3.12,0,1.4-.35,2.39-1.45,2.84L76.17,67H74l-1.4-5.38h-1V67H69.47Zm2.81,5c1.24,0,1.68-.54,1.68-1.8s-.33-1.77-1.56-1.77h-.8v3.57Z"></path><path class="cls-2" d="M77.48,63.22V55.28h2.08v8.19c0,1.12.13,2.12,1.22,2.12s1.23-1,1.23-2.12V55.28h2.07v7.94c0,2.47-.68,4-3.3,4S77.48,65.69,77.48,63.22Z"></path><path class="cls-2" d="M85.94,55.28h2.22l1.67,8.13,1.72-8.13h2.16L93.93,67H92.34l-.18-8.16L90.49,67H89.2l-1.69-8.19L87.35,67H85.74Z"></path><path class="cls-2" d="M95.67,55.28H97.8V65.56h2.86V67h-5Z"></path><path class="cls-2" d="M103.53,55.28h2.29L108.17,67h-2l-.46-2.71h-2L103.2,67h-2Zm2,7.67-.8-4.93-.8,4.93Z"></path><path class="cls-2" d="M109.35,55.28h2.82c2.35,0,3.68.75,3.68,3.12,0,1.4-.34,2.39-1.44,2.84L116,67H113.9l-1.41-5.38h-1V67h-2.13Zm2.81,5c1.23,0,1.68-.54,1.68-1.8s-.33-1.77-1.57-1.77h-.79v3.57Z"></path><path class="cls-2" d="M10.66,22.31c-1.13.62-3.12,1.28-4.33,1.91V19.38C7.46,18.79,11,17,12.06,15.87h5.11V47.46H10.66Z"></path><path class="cls-2" d="M22.67,37.55V26.13c0-6.17,1.68-10.69,8.7-10.69,6,0,8,2.85,8,8.11,0,.2,0,.39,0,.55H33.32c0-2.54-.16-3.74-1.91-3.74s-2.11,1.36-2.11,6.27v2.81c.62-1.09,2.14-1.67,3.9-1.75,5-.12,6.82,3.94,6.82,9.08,0,6.63-2,11.16-8.61,11.16C25.2,47.93,22.67,43.56,22.67,37.55Zm10.8.24c0-3.08,0-5.11-2.06-5.11a2.6,2.6,0,0,0-2.11,1.25v5.15c0,2.14.43,4.05,2.18,4.05S33.47,41.34,33.47,37.79Z"></path></g></g></g></svg> 