<?xml version="1.0" encoding="UTF-8"?> <svg xmlns="http://www.w3.org/2000/svg" viewBox="0 0 164.33 164.33"><defs><style>.cls-1{fill:#f99d25;}.cls-2{fill:#fff;}</style></defs><g id="Layer_2" data-name="Layer 2"><g id="UN_LOGOSUZ" data-name="UN LOGOSUZ"><g id="AMAC_11" data-name="AMAC 11"><rect id="arkaplan" class="cls-1" width="164.33" height="164.33"></rect><g id="simge"><path class="cls-2" d="M32.11,128.93H54.67a.55.55,0,0,0,.55-.56.51.51,0,0,0-.14-.36l0,0L43.82,113.45l-.11-.12a.54.54,0,0,0-.4-.18.6.6,0,0,0-.37.14l-.06.08-.11.12-11,14.37-.17.2a.56.56,0,0,0,.46.87Z"></path><path class="cls-2" d="M54.6,131H32a.54.54,0,0,0-.55.55v17.69a.54.54,0,0,0,.55.55h7.27V138.65a.56.56,0,0,1,.56-.56h6.75a.55.55,0,0,1,.55.56v11.12H54.6a.55.55,0,0,0,.56-.55V131.53A.55.55,0,0,0,54.6,131Z"></path><path class="cls-2" d="M132.73,126.35H110.35a.53.53,0,0,0-.54.53v22.59a.54.54,0,0,0,.54.53h22.38a.54.54,0,0,0,.54-.53V126.88a.53.53,0,0,0-.54-.53m-12.25,14.74a.54.54,0,0,1-.54.54h-6.69a.55.55,0,0,1-.55-.54V137a.54.54,0,0,1,.55-.53h6.69a.54.54,0,0,1,.54.53Zm0-7.5a.54.54,0,0,1-.54.53h-6.69a.54.54,0,0,1-.55-.53v-4.07a.54.54,0,0,1,.55-.53h6.69a.54.54,0,0,1,.54.53Zm10.22,7.5a.54.54,0,0,1-.55.54h-6.68a.55.55,0,0,1-.55-.54V137a.54.54,0,0,1,.55-.53h6.68a.54.54,0,0,1,.55.53Zm0-7.5a.54.54,0,0,1-.55.53h-6.68a.54.54,0,0,1-.55-.53v-4.07a.54.54,0,0,1,.55-.53h6.68a.54.54,0,0,1,.55.53Z"></path><path class="cls-2" d="M80.72,73.91H58.82a.53.53,0,0,0-.53.53v74.83a.53.53,0,0,0,.53.53h21.9a.54.54,0,0,0,.54-.53V74.44a.54.54,0,0,0-.54-.53m-13,67.37a.29.29,0,0,1-.29.29h-5a.29.29,0,0,1-.28-.29v-5.59a.28.28,0,0,1,.28-.28h5a.28.28,0,0,1,.29.28Zm0-12.83a.29.29,0,0,1-.29.29h-5a.29.29,0,0,1-.28-.29v-5.59a.28.28,0,0,1,.28-.28h5a.28.28,0,0,1,.29.28Zm0-12.83a.29.29,0,0,1-.29.29h-5a.29.29,0,0,1-.28-.29V110a.29.29,0,0,1,.28-.29h5a.29.29,0,0,1,.29.29Zm0-12.83a.29.29,0,0,1-.29.29h-5a.29.29,0,0,1-.28-.29V97.2a.28.28,0,0,1,.28-.28h5a.28.28,0,0,1,.29.28ZM67.7,90a.29.29,0,0,1-.29.29h-5a.29.29,0,0,1-.28-.29V84.37a.28.28,0,0,1,.28-.28h5a.28.28,0,0,1,.29.28Zm9.83,51.32a.29.29,0,0,1-.29.29h-5a.29.29,0,0,1-.29-.29v-5.59a.28.28,0,0,1,.29-.28h5a.28.28,0,0,1,.29.28Zm0-12.83a.29.29,0,0,1-.29.29h-5a.29.29,0,0,1-.29-.29v-5.59a.28.28,0,0,1,.29-.28h5a.28.28,0,0,1,.29.28Zm0-12.83a.29.29,0,0,1-.29.29h-5a.29.29,0,0,1-.29-.29V110a.29.29,0,0,1,.29-.29h5a.29.29,0,0,1,.29.29Zm0-12.83a.29.29,0,0,1-.29.29h-5a.29.29,0,0,1-.29-.29V97.2a.28.28,0,0,1,.29-.28h5a.28.28,0,0,1,.29.28Zm0-12.83a.29.29,0,0,1-.29.29h-5a.29.29,0,0,1-.29-.29V84.37a.28.28,0,0,1,.29-.28h5a.28.28,0,0,1,.29.28Z"></path><rect class="cls-2" x="109.83" y="119.12" width="23.42" height="5.4" rx="0.45"></rect><path class="cls-2" d="M107.16,88a.57.57,0,0,0-.54-.42.58.58,0,0,0-.32.1l0,0-.18.23-21.52,27.3-.1.13a.66.66,0,0,0-.19.43v33.54a.53.53,0,0,0,.54.53h21.87a.53.53,0,0,0,.54-.53V88.26A.4.4,0,0,0,107.16,88Zm-9,14.82.15-.19c1.47-1.89,3.95-5,5.16-6.43l.16-.19a.63.63,0,0,1,.48-.23.62.62,0,0,1,.6.5v6.91a.63.63,0,0,1-.59.62H98.58a.63.63,0,0,1-.6-.62A.59.59,0,0,1,98.11,102.86ZM94.7,141.09a.54.54,0,0,1-.53.54H87.64a.54.54,0,0,1-.54-.54V137a.54.54,0,0,1,.54-.54h6.53a.54.54,0,0,1,.53.54Zm0-7.55a.54.54,0,0,1-.53.54H87.64a.54.54,0,0,1-.54-.54v-4.08a.54.54,0,0,1,.54-.54h6.53a.54.54,0,0,1,.53.54Zm0-7.54a.53.53,0,0,1-.53.53H87.64a.54.54,0,0,1-.54-.53v-4.09a.54.54,0,0,1,.54-.54h6.53a.54.54,0,0,1,.53.54Zm0-16.54v9a.54.54,0,0,1-.54.54H87.66a.54.54,0,0,1-.54-.54v-1.13a.65.65,0,0,1,0-.2l0-.06,0-.07.06-.09c.84-1.19,4.6-5.83,6.18-7.77l.16-.19a.61.61,0,0,1,1.08.28Zm10,31.63a.54.54,0,0,1-.54.54H97.62a.54.54,0,0,1-.54-.54V137a.54.54,0,0,1,.54-.54h6.52a.54.54,0,0,1,.54.54Zm0-7.55a.54.54,0,0,1-.54.54H97.62a.54.54,0,0,1-.54-.54v-4.08a.54.54,0,0,1,.54-.54h6.52a.54.54,0,0,1,.54.54Zm0-7.54a.54.54,0,0,1-.54.53H97.62a.54.54,0,0,1-.54-.53v-4.09a.54.54,0,0,1,.54-.54h6.52a.54.54,0,0,1,.54.54Zm0-7.55a.54.54,0,0,1-.54.53H97.62a.54.54,0,0,1-.54-.53v-4.09a.54.54,0,0,1,.54-.53h6.52a.54.54,0,0,1,.54.53Zm0-7.55a.54.54,0,0,1-.54.53H97.62a.53.53,0,0,1-.54-.53v-4.09a.54.54,0,0,1,.54-.53h6.52a.54.54,0,0,1,.54.53Z"></path></g><path class="cls-2" d="M51.43,25.35,53.27,25c.06,1.39.39,2.29,1.33,2.29.68,0,1-.47,1-1.1a2.82,2.82,0,0,0-1.29-2.25l-1.47-1.29a3.48,3.48,0,0,1-1.37-2.84,2.72,2.72,0,0,1,3-2.9c2.21,0,2.83,1.48,3,3.19l-1.85.32c0-1.11-.2-1.93-1.14-1.93a1,1,0,0,0-1,1.1,2.14,2.14,0,0,0,1,1.77l1.46,1.29a4.33,4.33,0,0,1,1.76,3.41,2.78,2.78,0,0,1-2.94,2.88C52.53,28.93,51.51,27.68,51.43,25.35Z"></path><path class="cls-2" d="M58.79,25V17h2.09v8.19c0,1.11.13,2.12,1.22,2.12s1.23-1,1.23-2.12V17H65.4V25c0,2.47-.68,4-3.3,4S58.79,27.44,58.79,25Zm1-11.3h1.74v1.88H59.82Zm2.84,0H64.4v1.88H62.66Z"></path><path class="cls-2" d="M67.09,17h2.82c2.35,0,3.69.75,3.69,3.12,0,1.4-.35,2.39-1.45,2.84l1.64,5.78H71.64l-1.41-5.38h-1v5.38H67.09Zm2.81,5c1.23,0,1.68-.54,1.68-1.8s-.33-1.77-1.56-1.77h-.8v3.57Z"></path><path class="cls-2" d="M75.22,17H78c2.86,0,3.73,1.14,3.73,3.65V25c0,2.58-.89,3.81-3.64,3.81H75.22ZM78,27.28c1.46,0,1.52-.79,1.52-2.25V20.54c0-1.41-.14-2-1.55-2h-.64v8.73Z"></path><path class="cls-2" d="M83.21,25V17H85.3v8.19c0,1.11.13,2.12,1.22,2.12s1.23-1,1.23-2.12V17h2.07V25c0,2.47-.68,4-3.3,4S83.21,27.44,83.21,25Zm1-11.3H86v1.88H84.24Zm2.84,0h1.74v1.88H87.08Z"></path><path class="cls-2" d="M91.51,17h2.82c2.35,0,3.68.75,3.68,3.12,0,1.4-.34,2.39-1.45,2.84l1.64,5.78H96.06l-1.41-5.38h-1v5.38H91.51Zm2.81,5c1.23,0,1.68-.54,1.68-1.8s-.33-1.77-1.57-1.77h-.79v3.57Z"></path><path class="cls-2" d="M99.51,25V17h2.09v8.19c0,1.11.13,2.12,1.21,2.12s1.24-1,1.24-2.12V17h2.07V25c0,2.47-.68,4-3.31,4S99.51,27.44,99.51,25Zm1-11.3h1.74v1.88h-1.74Zm2.84,0h1.74v1.88h-1.74Z"></path><path class="cls-2" d="M107.8,17h2.13V27.31h2.86v1.46h-5Z"></path><path class="cls-2" d="M113.91,17h4.93v1.51H116v3.37h2.2v1.5H116v3.9h2.83v1.46h-5Z"></path><path class="cls-2" d="M120.11,17H123c2.06,0,3.44.69,3.44,3,0,1.44-.6,2.24-1.7,2.41,1.38.26,2,1.25,2,2.9,0,2.25-1.1,3.42-3.27,3.42h-3.4Zm2.87,4.8c1.28,0,1.61-.57,1.61-1.76s-.61-1.55-1.91-1.55h-.44v3.31Zm.09,5.43c1.31,0,1.67-.61,1.67-1.93s-.47-2-1.74-2h-.76v4Z"></path><path class="cls-2" d="M128.25,17h2.11V28.77h-2.11Zm.1-3.19h1.91v2h-1.91Z"></path><path class="cls-2" d="M132.18,17h2.13V27.31h2.85v1.46h-5Z"></path><path class="cls-2" d="M138.34,17h2.12V28.77h-2.12Zm.1-3.19h1.91v2h-1.91Z"></path><path class="cls-2" d="M142.27,17h2.83c2.34,0,3.68.75,3.68,3.12,0,1.4-.35,2.39-1.45,2.84L149,28.77h-2.15l-1.41-5.38h-1v5.38h-2.13Zm2.81,5c1.23,0,1.68-.54,1.68-1.8s-.33-1.77-1.56-1.77h-.8v3.57Z"></path><path class="cls-2" d="M54.84,48.43v.72c1.07,0,1.79.48,1.79,1.38s-.91,1.47-2,1.47a3.75,3.75,0,0,1-1-.16v-.92a2.32,2.32,0,0,0,.78.12c.51,0,.88-.15.88-.54s-.59-.71-1.27-.78V48.39c-1.7-.25-2.51-1.47-2.58-3.54l1.84-.36c.06,1.39.39,2.29,1.33,2.29.68,0,1-.47,1-1.1a2.82,2.82,0,0,0-1.29-2.25l-1.47-1.29a3.48,3.48,0,0,1-1.37-2.84,2.72,2.72,0,0,1,3-2.9c2.21,0,2.83,1.48,3,3.19l-1.85.32c0-1.11-.2-1.93-1.14-1.93a1,1,0,0,0-1,1.1,2.14,2.14,0,0,0,1,1.77l1.46,1.29a4.33,4.33,0,0,1,1.76,3.41A2.77,2.77,0,0,1,54.84,48.43Z"></path><path class="cls-2" d="M58.88,36.53h4.93V38H61v3.37h2.21v1.5H61v3.9h2.83v1.46h-5Z"></path><path class="cls-2" d="M65.12,36.53h2.13v4.9h2.39v-4.9h2.14V48.27H69.64V43H67.25v5.31H65.12Z"></path><path class="cls-2" d="M73.64,36.53h2.12V48.27H73.64Zm.1-3.19h1.92v2H73.74Z"></path><path class="cls-2" d="M77.57,36.53H80.4c2.35,0,3.68.75,3.68,3.12,0,1.4-.35,2.39-1.45,2.84l1.64,5.78H82.12l-1.4-5.38h-1v5.38H77.57Zm2.81,5c1.24,0,1.68-.54,1.68-1.8S81.73,38,80.5,38h-.8v3.57Z"></path><path class="cls-2" d="M85.71,36.53h2.13V46.81h2.85v1.46h-5Z"></path><path class="cls-2" d="M91.81,36.53h4.93V38h-2.8v3.37h2.2v1.5h-2.2v3.9h2.83v1.46h-5Z"></path><path class="cls-2" d="M98,36.53h2.82c2.35,0,3.68.75,3.68,3.12,0,1.4-.34,2.39-1.44,2.84l1.63,5.78h-2.14l-1.41-5.38h-1v5.38H98Zm2.81,5c1.23,0,1.68-.54,1.68-1.8S102.18,38,100.94,38h-.79v3.57Z"></path><path class="cls-2" d="M109.12,36.53H111l1.55,8.3,1.46-8.3H116l-2.36,11.74h-2.1Z"></path><path class="cls-2" d="M117.16,36.53h4.92V38h-2.79v3.37h2.2v1.5h-2.2v3.9h2.82v1.46h-5Z"></path><path class="cls-2" d="M52.89,57.61H51V56h5.84v1.58H55V67.77H52.89Z"></path><path class="cls-2" d="M57.69,64.09V59.68c0-2.38.87-3.78,3.39-3.78s3.38,1.4,3.38,3.78v4.41c0,2.36-.87,3.84-3.38,3.84S57.69,66.47,57.69,64.09Zm4.6.51V59.19c0-1-.16-1.73-1.21-1.73s-1.21.74-1.21,1.73V64.6c0,1,.16,1.75,1.21,1.75S62.29,65.57,62.29,64.6Z"></path><path class="cls-2" d="M66,56h3.45c2.11,0,3,1.22,3,3.33,0,2.31-1.24,3.19-3.14,3.19H68.18v5.22H66Zm3,5c1.18,0,1.48-.45,1.48-1.69s-.16-1.81-1.48-1.81h-.82V61Z"></path><path class="cls-2" d="M73.69,56h2.13V66.31h2.85v1.46h-5Z"></path><path class="cls-2" d="M79.59,64V56h2.09v8.19c0,1.11.12,2.11,1.21,2.11s1.23-1,1.23-2.11V56H86.2V64c0,2.47-.68,4-3.31,4S79.59,66.44,79.59,64Z"></path><path class="cls-2" d="M87.88,56H90V66.31h2.86v1.46h-5Z"></path><path class="cls-2" d="M93.78,64V56h2.09v8.19c0,1.11.13,2.11,1.22,2.11s1.23-1,1.23-2.11V56h2.07V64c0,2.47-.68,4-3.3,4S93.78,66.44,93.78,64Z"></path><path class="cls-2" d="M102.08,56h2.13v5.16L106.54,56h2l-2.25,5.23,2.48,6.51h-2.13l-2-5.33-.52.88v4.45h-2.13Z"></path><path class="cls-2" d="M109.79,56h2.13V66.31h2.86v1.46h-5Z"></path><path class="cls-2" d="M117.65,56h2.29l2.35,11.74h-2l-.46-2.71h-2l-.47,2.71h-2Zm2,7.67-.8-4.93L118,63.7Z"></path><path class="cls-2" d="M123.46,56h2.83c2.35,0,3.68.75,3.68,3.12,0,1.4-.35,2.39-1.45,2.84l1.64,5.78H128l-1.41-5.38h-1v5.38h-2.13Zm2.82,5c1.23,0,1.68-.54,1.68-1.8s-.34-1.77-1.57-1.77h-.8v3.57Z"></path><path class="cls-2" d="M17.57,23c-1.13.62-3.12,1.28-4.33,1.91V20.08c1.13-.58,4.68-2.42,5.73-3.51h5.11V48.16H17.57Z"></path><path class="cls-2" d="M32.74,23c-1.13.62-3.12,1.28-4.33,1.91V20.08c1.13-.58,4.68-2.42,5.73-3.51h5.11V48.16H32.74Z"></path></g></g></g></svg> 