<?xml version="1.0" encoding="UTF-8"?> <svg xmlns="http://www.w3.org/2000/svg" viewBox="0 0 164.33 164.33"><defs><style>.cls-1{fill:#c22033;}.cls-2{fill:#fff;}</style></defs><g id="Layer_2" data-name="Layer 2"><g id="UN_LOGOSUZ" data-name="UN LOGOSUZ"><g id="AMAC_04" data-name="AMAC 04"><rect id="arkaplan" class="cls-1" width="164.33" height="164.33"></rect><g id="simge"><polygon class="cls-2" points="71.84 89.52 42.23 72.43 42.23 127.73 71.84 136.67 71.84 89.52"></polygon><polygon class="cls-2" points="75.1 89.64 75.1 136.69 104.9 127.73 104.9 72.43 75.1 89.64"></polygon><polygon class="cls-2" points="122 126.75 121.14 126.75 124.64 139 128.14 126.75 127.27 126.75 128.14 126.75 128.14 77.55 127.27 77.55 126.4 77.55 125.48 77.55 123.73 77.55 122.88 77.55 122 77.55 121.13 77.55 121.13 126.75 122 126.75"></polygon><polygon class="cls-2" points="111.26 74.8 108.08 72.3 108.08 129.23 75.19 139.86 73.66 139.86 73.36 139.86 71.84 139.86 39.09 130.71 39.09 72.3 35.91 74.8 35.91 132.94 71.69 142.84 73.36 142.84 73.66 142.84 75.33 142.84 108.34 132.37 111.26 131.51 111.26 74.8"></polygon><path class="cls-2" d="M128.14,71a3.5,3.5,0,1,0-7,0V74.8h7Z"></path></g><path class="cls-2" d="M43.06,17h1.49l2.86,6.69V17h1.76V28.72H47.75l-2.87-7v7H43.06Z"></path><path class="cls-2" d="M51,17h2.11V28.72H51Zm.1-3.19H53v2H51.12Z"></path><path class="cls-2" d="M56.12,18.56H54.25V17h5.84v1.58H58.27V28.72H56.12Z"></path><path class="cls-2" d="M61.17,17H66.1v1.5H63.3v3.38h2.2v1.5H63.3v3.89h2.82v1.47h-5Z"></path><path class="cls-2" d="M67.37,17H69.5V27.25h2.86v1.47h-5Z"></path><path class="cls-2" d="M73.54,17h2.11V28.72H73.54Zm.1-3.19h1.91v2H73.64Z"></path><path class="cls-2" d="M77.46,17H79.6v5.16L81.93,17h2l-2.24,5.23,2.48,6.51H82.07l-1.95-5.34-.52.89v4.45H77.46Z"></path><path class="cls-2" d="M85.18,17h2.13V27.25h2.85v1.47h-5Z"></path><path class="cls-2" d="M91.34,17h2.12V28.72H91.34Zm.1-3.19h1.92v2H91.44Z"></path><path class="cls-2" d="M43.06,36.48H48V38h-2.8v3.38h2.2v1.5h-2.2v3.89H48v1.47H43.06Z"></path><path class="cls-2" d="M49.07,44.35V40.41c0-2.53.77-4.06,3.35-4.06,2.41,0,3.25,1.24,3.25,3.42v.61h-2v-.67c0-1.13-.12-1.8-1.18-1.8s-1.22.92-1.22,2v4.91c0,1.22.24,2,1.28,2S53.8,46,53.8,44.71v-1.1H52.54V42.26h3.19v6H54.34l-.15-1.15a2,2,0,0,1-2,1.31C49.89,48.38,49.07,46.83,49.07,44.35Zm1.28-10.92h1.12c0,.71.27,1.08,1,1.08s1-.4,1-1.08h1.13a2.1,2.1,0,1,1-4.19,0Z"></path><path class="cls-2" d="M57.43,36.48h2.11V48.22H57.43Zm.1-3.19h1.91v2H57.53Z"></path><path class="cls-2" d="M62.53,38.06H60.66V36.48H66.5v1.58H64.67V48.22H62.53Z"></path><path class="cls-2" d="M67.63,36.48h2.12V48.22H67.63Zm.11-3.19h1.91v2H67.74Z"></path><path class="cls-2" d="M71.74,36.48H74l1.66,8.13,1.73-8.13h2.16l.21,11.74H78.13L78,40.06l-1.67,8.16H75L73.3,40l-.16,8.19H71.53Z"></path><path class="cls-2" d="M22.15,40.47H12.44v-4.8L20.67,16h7.57V35.63h2.92v4.84H28.24v7.09H22.15Zm0-4.84V22.49L17.4,35.63Z"></path></g></g></g></svg> 