<?xml version="1.0" encoding="UTF-8"?> <svg xmlns="http://www.w3.org/2000/svg" viewBox="0 0 164.33 164.33"><defs><style>.cls-1{fill:#d19f2a;}.cls-2{fill:#fff;}</style></defs><g id="Layer_2" data-name="Layer 2"><g id="UN_LOGOSUZ" data-name="UN LOGOSUZ"><g id="AMAC_02" data-name="AMAC 02"><rect id="arkaplan" class="cls-1" width="164.33" height="164.33"></rect><g id="simge"><path class="cls-2" d="M63.59,139.11v2.32s0,0,0,.06,0,0,0,0a1.09,1.09,0,0,0,1.07,1H92a1.09,1.09,0,0,0,1.07-1.09h0v-2.63c15.33-5,26.81-17.45,29.34-32.59,0,0,0-.06,0-.09a.77.77,0,0,0,0-.15,1.1,1.1,0,0,0-1.1-1.1H34.54a1.1,1.1,0,0,0-1.11,1.1l.06.49c2.65,15.29,14.45,27.78,30.1,32.6"></path><path class="cls-2" d="M93,67.87c-.35.51-8.74,12.58.19,22.35,4.1,4.48,3.74,8.43,2.57,11.1h5.73c1.16-3.94.68-8.89-4-14-6.58-7.19.09-16.91.19-17.06a2.16,2.16,0,0,0-.93-3.21,3.06,3.06,0,0,0-3.78.79"></path><path class="cls-2" d="M78.53,101.32h5.73c1.16-3.94.67-8.89-4-14-6.58-7.19.08-16.91.19-17.07a2.15,2.15,0,0,0-.94-3.2,3,3,0,0,0-3.76.79c-.36.51-8.75,12.58.18,22.35,4.1,4.48,3.74,8.43,2.58,11.1"></path><path class="cls-2" d="M58.5,67.87c-.36.51-8.75,12.58.18,22.35,4.1,4.48,3.75,8.43,2.58,11.1H67c1.16-3.94.68-8.89-4-14-6.58-7.19.08-16.91.19-17.07a2.15,2.15,0,0,0-.94-3.2,3,3,0,0,0-3.76.79"></path></g><path class="cls-2" d="M45.54,13.82h2.29l2.35,11.74h-2l-.46-2.71h-2l-.48,2.71h-2Zm2,7.67-.79-4.93-.8,4.93Z"></path><path class="cls-2" d="M55.56,18.05V17c0-1,0-1.79-1.11-1.79s-1.2.84-1.2,1.92v5.08c0,1.28.26,1.89,1.2,1.89s1.11-.83,1.11-1.87V21.21h2v.94c0,2-.63,3.45-2.88,3.57v.72c1.07,0,1.8.48,1.8,1.38s-.92,1.46-2,1.46a3.81,3.81,0,0,1-1.05-.15v-.92a2.71,2.71,0,0,0,.78.12c.51,0,.89-.15.89-.54s-.6-.71-1.28-.78V25.69c-2.14-.22-2.81-1.77-2.81-3.89V17.62c0-2.41.77-3.93,3.35-3.93,2.41,0,3.17,1.33,3.17,3.37v1Z"></path><path class="cls-2" d="M59.11,13.82h2.13V24.1H64.1v1.46h-5Z"></path><path class="cls-2" d="M65.27,13.82h2.12V25.56H65.27Z"></path><path class="cls-2" d="M69,21.69V17.75c0-2.53.77-4.06,3.35-4.06,2.41,0,3.25,1.24,3.25,3.42v.61h-2v-.67c0-1.13-.11-1.8-1.17-1.8s-1.22.92-1.22,2v4.91c0,1.22.23,2,1.28,2s1.29-.81,1.29-2.09V21H72.48V19.6h3.19v6H74.28l-.15-1.15a2,2,0,0,1-2,1.31C69.82,25.72,69,24.17,69,21.69Zm1.28-10.92H71.4c0,.71.28,1.08,1,1.08s1-.4,1-1.08h1.13a2.1,2.1,0,1,1-4.19,0Z"></path><path class="cls-2" d="M79.06,13.82h2.29L83.7,25.56h-2l-.46-2.71h-2l-.48,2.71h-2Zm2,7.67-.8-4.93-.8,4.93Z"></path><path class="cls-2" d="M43.49,41.64l1.84-.36c.06,1.39.4,2.29,1.34,2.29.68,0,1-.47,1-1.11a2.8,2.8,0,0,0-1.29-2.24l-1.48-1.29a3.48,3.48,0,0,1-1.36-2.84,2.72,2.72,0,0,1,3-2.9c2.2,0,2.82,1.48,2.94,3.19l-1.84.32c0-1.11-.2-1.93-1.15-1.93a1,1,0,0,0-1,1.1,2.13,2.13,0,0,0,1,1.77l1.47,1.29a4.32,4.32,0,0,1,1.75,3.4,2.78,2.78,0,0,1-2.94,2.89C44.59,45.22,43.58,44,43.49,41.64Z"></path><path class="cls-2" d="M50.76,41.38V37c0-2.38.87-3.78,3.39-3.78s3.38,1.4,3.38,3.78v4.41c0,2.36-.87,3.84-3.38,3.84S50.76,43.75,50.76,41.38Zm4.59.5v-5.4c0-1-.16-1.73-1.2-1.73s-1.22.74-1.22,1.73v5.4c0,1,.16,1.76,1.22,1.76S55.35,42.86,55.35,41.88Z"></path><path class="cls-2" d="M59.11,33.32H60.6L63.46,40V33.32h1.77V45.06H63.81l-2.87-7v7H59.11Z"></path><path class="cls-2" d="M13.06,41.8l7.57-11.62C22.3,27.61,24,25.34,24,22.61c0-1.79-.78-2.69-2-2.69-2.14,0-2.65,1.91-2.65,4.33v1.56H13V24.13c0-5.57,2.5-9.75,8.86-9.75,5.65,0,8.58,3.12,8.58,8.35,0,3.82-2.07,6.63-4.33,10l-5.77,8.61h9.24V46.4H13.06Z"></path></g></g></g></svg> 